<svg xmlns="http://www.w3.org/2000/svg" width="75" height="75" enable-background="new 0 0 50 50" viewBox="0 0 64 64"><path fill="#d89456" d="M53.4,21.7c-0.4,0-0.8-0.3-0.8-0.8v-3c0-0.4,0.3-0.8,0.8-0.8c0.4,0,0.8,0.3,0.8,0.8v3C54.1,21.4,53.8,21.7,53.4,21.7z"/><path fill="#eea459" d="M53.4,18.9c-1.1,0-2-0.9-2-2c0-1.1,0.9-2,2-2s2,0.9,2,2C55.4,18,54.5,18.9,53.4,18.9z M53.4,16.9L53.4,16.9L53.4,16.9z"/><path fill="#d89456" d="M25.9,15c-0.4,0-0.8-0.3-0.8-0.8v-2.9c0-0.4,0.3-0.8,0.8-0.8c0.4,0,0.8,0.3,0.8,0.8v2.9C26.7,14.6,26.3,15,25.9,15z"/><path fill="#eea459" d="M25.9,12.4c-1.1,0-2.1-0.9-2.1-2.1c0-1.1,0.9-2.1,2.1-2.1c1.1,0,2.1,0.9,2.1,2.1C28,11.4,27.1,12.4,25.9,12.4z M25.9,10.3v0.1V10.3C26,10.3,26,10.3,25.9,10.3z"/><polygon fill="#d89456" points="17 29.4 17 20.6 19 20.6 31.3 20.6 34.8 20.6 34.8 29.4"/><rect width="33.8" height="6.6" x="2.4" y="49.1" fill="#d89456"/><polygon fill="#eea459" points="50.3 36.2 50.3 55.7 47.3 55.7 47.3 39.5 36.3 39.5 36.3 49.1 2.4 49.1 2.4 36.2 12.7 36.2 12.7 43.6 29.9 43.6 29.9 36.2"/><path fill="#d89456" d="M50.3,36.2v19.5h11.2V36.2H50.3z"/><rect width="52.1" height="3.2" x="9.4" y="29.4" fill="#eea459"/><rect width="10" height="4" x="48.4" y="25.4" fill="#d89456"/><rect width="7" height="12.1" x="2.4" y="20.6" fill="#d89456"/><path fill="#862501" d="M64,36.2H0l0,0c0-1.4,1.2-3.6,2.6-3.6h58.8C62.8,32.7,64,34.8,64,36.2L64,36.2z"/><rect width="11" height="16.2" x="36.3" y="39.5" fill="#c07850"/><rect width="17.2" height="7.3" x="12.7" y="36.2" fill="#f8cda0"/><path fill="#f8cda0" d="M21.3 55.7h-3.9v-1.6c0-1.1.9-1.9 1.9-1.9l0 0c1.1 0 1.9.9 1.9 1.9V55.7zM32.1 55.7h-3.9v-1.6c0-1.1.9-1.9 1.9-1.9l0 0c1.1 0 1.9.9 1.9 1.9V55.7zM10.5 55.7H6.7v-1.6c0-1.1.9-1.9 1.9-1.9l0 0c1.1 0 1.9.9 1.9 1.9V55.7z"/><rect width="3.5" height="4.2" x="5.7" y="40.7" fill="#c07850"/><path fill="#eea459" d="M18.8 43.7h-3.5v-2.5c0-1 .8-1.8 1.8-1.8h0c1 0 1.8.8 1.8 1.8V43.7zM27.3 43.7h-3.5v-2.5c0-1 .8-1.8 1.8-1.8l0 0c1 0 1.8.8 1.8 1.8V43.7z"/><rect width="3.5" height="4.2" x="54.2" y="39.8" fill="#c07850"/><rect width="3.5" height="4.2" x="54.2" y="47.9" fill="#c07850"/><path fill="#862501" d="M12.7 29.4H9.4V26c0-.9.7-1.6 1.6-1.6l0 0c.9 0 1.6.7 1.6 1.6V29.4zM18.6 29.4h-3.3V26c0-.9.7-1.6 1.6-1.6l0 0c.9 0 1.6.7 1.6 1.6V29.4zM24.6 29.4h-3.3V26c0-.9.7-1.6 1.6-1.6l0 0c.9 0 1.6.7 1.6 1.6V29.4zM30.5 29.4h-3.3V26c0-.9.7-1.6 1.6-1.6l0 0c.9 0 1.6.7 1.6 1.6V29.4zM36.5 29.4h-3.3V26c0-.9.7-1.6 1.6-1.6l0 0c.9 0 1.6.7 1.6 1.6V29.4zM42.4 29.4h-3.3V26c0-.9.7-1.6 1.6-1.6l0 0c.9 0 1.6.7 1.6 1.6V29.4zM48.4 29.4h-3.3V26c0-.9.7-1.6 1.6-1.6l0 0c.9 0 1.6.7 1.6 1.6V29.4z"/><path fill="#c07850" d="M56.6 25.4h-6.4v-1.2c0-1.8 1.4-3.2 3.2-3.2l0 0c1.8 0 3.2 1.4 3.2 3.2V25.4zM32.1 20.6H19.8v-.2c0-3.4 2.8-6.2 6.2-6.2l0 0c3.4 0 6.2 2.8 6.2 6.2V20.6zM8.6 20.6H3.3v-.1c0-1.9 1.2-3.5 2.6-3.5l0 0C7.4 17 8.6 18.5 8.6 20.6L8.6 20.6z"/><path fill="#862501" d="M44.9,55.7h-6.2v-5.5c0-1.7,1.4-3.1,3.1-3.1l0,0c1.7,0,3.1,1.4,3.1,3.1V55.7z"/><path fill="#c07850" d="M5.9,18.4c-0.3,0-0.5-0.2-0.5-0.5v-3.1c0-0.3,0.2-0.5,0.5-0.5s0.5,0.2,0.5,0.5v3.1C6.4,18.1,6.2,18.4,5.9,18.4z"/></svg>