<svg xmlns="http://www.w3.org/2000/svg" width="75" height="75" viewBox="0 0 100 100"><path fill="#594454" d="M83 91H17c-.3 0-.5-.2-.5-.5s.2-.5.5-.5h66c.3 0 .5.2.5.5s-.2.5-.5.5z"/><path fill="#f79a6c" d="M53 55.5v-7c0-.9.4-1.8 1.2-2.4l.8-.6.8.6c.8.6 1.2 1.5 1.2 2.4v7M47 47.1v-9.4c0-.9.5-1.8 1.3-2.2l1.7-1 1.7 1c.8.5 1.3 1.3 1.3 2.2v9.4"/><path fill="#f79a6c" d="M53 49.5v-11c0-.9.4-1.8 1.2-2.4l.8-.6.8.6c.8.6 1.2 1.5 1.2 2.4v11M43 48.5v-10c0-.9.4-1.8 1.2-2.4l.8-.6.8.6c.8.6 1.2 1.5 1.2 2.4v10M47 56.6v-8.9c0-.9.5-1.8 1.3-2.2l1.7-1 1.7 1c.8.5 1.3 1.3 1.3 2.2v8.9M57 49.1v-8.4c0-.9.5-1.8 1.3-2.2l1.7-1 1.7 1c.8.5 1.3 1.3 1.3 2.2v8.4"/><path fill="#f79a6c" d="M57 59.1v-9.4c0-.9.5-1.8 1.3-2.2l1.7-1 1.7 1c.8.5 1.3 1.3 1.3 2.2v9.4M37 49.1v-8.4c0-.9.5-1.8 1.3-2.2l1.7-1 1.7 1c.8.5 1.3 1.3 1.3 2.2v8.4"/><path fill="#f79a6c" d="M37 58.1v-8.4c0-.9.5-1.8 1.3-2.2l1.7-1 1.7 1c.8.5 1.3 1.3 1.3 2.2v8.4M77 60.1v-5.4c0-.9-.5-1.8-1.3-2.2l-1.7-1-1.7 1c-.8.5-1.3 1.3-1.3 2.2v5.4M43 58.5v-10c0-.9.4-1.8 1.2-2.4l.8-.6.8.6c.8.6 1.2 1.5 1.2 2.4v10M33 49.5v-7c0-.9.4-1.8 1.2-2.4l.8-.6.8.6c.8.6 1.2 1.5 1.2 2.4v7M67 58.5v-7c0-.9-.4-1.8-1.2-2.4l-.8-.6-.8.6c-.8.6-1.2 1.5-1.2 2.4v7"/><path fill="#f79a6c" d="M67 49.5v-7c0-.9-.4-1.8-1.2-2.4l-.8-.6-.8.6c-.8.6-1.2 1.5-1.2 2.4v7M71 59.5v-7c0-.9-.4-1.8-1.2-2.4l-.8-.6-.8.6c-.8.6-1.2 1.5-1.2 2.4v7"/><path fill="#f79a6c" d="M71 52.5v-7c0-.9-.4-1.8-1.2-2.4l-.8-.6-.8.6c-.8.6-1.2 1.5-1.2 2.4v7M81 62.5v-7c0-.9-.4-1.8-1.2-2.4l-.8-.6-.8.6c-.8.6-1.2 1.5-1.2 2.4v7M77 56.1v-5.4c0-.9-.5-1.8-1.3-2.2l-1.7-1-1.7 1c-.8.5-1.3 1.3-1.3 2.2v5.4M23 56.1v-5.4c0-.9.5-1.8 1.3-2.2l1.7-1 1.7 1c.8.5 1.3 1.3 1.3 2.2v5.4"/><path fill="#f79a6c" d="M23 60.1v-5.4c0-.9.5-1.8 1.3-2.2l1.7-1 1.7 1c.8.5 1.3 1.3 1.3 2.2v5.4M33 58.5v-7c0-.9.4-1.8 1.2-2.4l.8-.6.8.6c.8.6 1.2 1.5 1.2 2.4v7M29 59.5v-7c0-.9.4-1.8 1.2-2.4l.8-.6.8.6c.8.6 1.2 1.5 1.2 2.4v7"/><path fill="#f79a6c" d="M29 52.5v-7c0-.9.4-1.8 1.2-2.4l.8-.6.8.6c.8.6 1.2 1.5 1.2 2.4v7M19 62.5v-7c0-.9.4-1.8 1.2-2.4l.8-.6.8.6c.8.6 1.2 1.5 1.2 2.4v7M43 68.5v-11c0-.9.4-1.8 1.2-2.4l.8-.6.8.6c.8.6 1.2 1.5 1.2 2.4v11M37 74.5h-4v-7c0-.9.4-1.8 1.2-2.4l.8-.6.8.6c.8.6 1.2 1.5 1.2 2.4v7zM37 66.6v-7.9c0-.9.5-1.8 1.3-2.2l1.7-1 1.7 1c.8.5 1.3 1.3 1.3 2.2v7.9"/><path fill="#f79a6c" d="M19 69.5v-7c0-.9.4-1.8 1.2-2.4l.8-.6.8.6c.8.6 1.2 1.5 1.2 2.4v7M23 67.1v-5.4c0-.9.5-1.8 1.3-2.2l1.7-1 1.7 1c.8.5 1.3 1.3 1.3 2.2v5.4M47 66.1v-8.4c0-.9.5-1.8 1.3-2.2l1.7-1 1.7 1c.8.5 1.3 1.3 1.3 2.2v8.9M57 66.6v-7.9c0-.9.5-1.8 1.3-2.2l1.7-1 1.7 1c.8.5 1.3 1.3 1.3 2.2v7.9M77 67.1v-5.4c0-.9-.5-1.8-1.3-2.2l-1.7-1-1.7 1c-.8.5-1.3 1.3-1.3 2.2v5.4M33 66.5v-7c0-.9.4-1.8 1.2-2.4l.8-.6.8.6c.8.6 1.2 1.5 1.2 2.4v7M29 67.5v-7c0-.9.4-1.8 1.2-2.4l.8-.6.8.6c.8.6 1.2 1.5 1.2 2.4v7M53 67.5v-10c0-.9.4-1.8 1.2-2.4l.8-.6.8.6c.8.6 1.2 1.5 1.2 2.4v10M67 66.5v-7c0-.9-.4-1.8-1.2-2.4l-.8-.6-.8.6c-.8.6-1.2 1.5-1.2 2.4v7M71 67.5v-7c0-.9-.4-1.8-1.2-2.4l-.8-.6-.8.6c-.8.6-1.2 1.5-1.2 2.4v7M81 69.5v-7c0-.9-.4-1.8-1.2-2.4l-.8-.6-.8.6c-.8.6-1.2 1.5-1.2 2.4v7"/><path fill="#f79a6c" d="M47 74.6v-6.9c0-.9.5-1.8 1.3-2.2l1.7-1 1.7 1c.8.5 1.3 1.3 1.3 2.2v6.9M57 74.6v-6.9c0-.9.5-1.8 1.3-2.2l1.7-1 1.7 1c.8.5 1.3 1.3 1.3 2.2v6.9M77 74.1v-5.4c0-.9-.5-1.8-1.3-2.2l-1.7-1-1.7 1c-.8.5-1.3 1.3-1.3 2.2v5.4M47 74.5h-4v-7c0-.9.4-1.8 1.2-2.4l.8-.6.8.6c.8.6 1.2 1.5 1.2 2.4v7zM33 74.5h-4v-7c0-.9.4-1.8 1.2-2.4l.8-.6.8.6c.8.6 1.2 1.5 1.2 2.4v7zM57 74.5h-4v-7c0-.9.4-1.8 1.2-2.4l.8-.6.8.6c.8.6 1.2 1.5 1.2 2.4v7zM63 74.5h4v-7c0-.9-.4-1.8-1.2-2.4l-.8-.6-.8.6c-.8.6-1.2 1.5-1.2 2.4v7zM67 74.5h4v-7c0-.9-.4-1.8-1.2-2.4l-.8-.6-.8.6c-.8.6-1.2 1.5-1.2 2.4v7zM81 74.5v-5c0-.9-.4-1.8-1.2-2.4l-.8-.6-.8.6c-.8.6-1.2 1.5-1.2 2.4v5M37 74.6v-6.9c0-.9.5-1.8 1.3-2.2l1.7-1 1.7 1c.8.5 1.3 1.3 1.3 2.2v6.9M23 74.1v-5.4c0-.9.5-1.8 1.3-2.2l1.7-1 1.7 1c.8.5 1.3 1.3 1.3 2.2v5.4"/><path fill="#fcbf7f" d="M27.5 67.5H29v7h-1.5z"/><path fill="#f17e5b" d="M23 67.5h1.5v7H23z"/><path fill="#f79a6c" d="M19 74.5v-5c0-.9.4-1.8 1.2-2.4l.8-.6.8.6c.8.6 1.2 1.5 1.2 2.4v5"/><path fill="#f17e5b" d="M18.5 68.5H20v6.1h-1.5z"/><path fill="#fcbf7f" d="M22 68.5h1.5v6.1H22zM41.5 66.5H43v8h-1.5z"/><path fill="#f17e5b" d="M37 66.5h1.5v8H37zM32.5 66.2H34v8.4h-1.5z"/><path fill="#fcbf7f" d="M36 66.2h1.5v8.4H36zM51.5 66.5H53v8h-1.5z"/><path fill="#f17e5b" d="M47 66.5h1.5v8H47zM42.5 66.2H44v8.4h-1.5z"/><path fill="#fcbf7f" d="M46 66.2h1.5v8.4H46zM61.5 66.5H63v8h-1.5z"/><path fill="#f17e5b" d="M57 66.5h1.5v8H57zM52.5 66.2H54v8.4h-1.5z"/><path fill="#fcbf7f" d="M56 66.2h1.5v8.4H56zM75.5 66.5H77v8h-1.5z"/><path fill="#f17e5b" d="M71 66.5h1.5v8H71zM66.5 66.2H68v8.4h-1.5z"/><path fill="#fcbf7f" d="M70 66.2h1.5v8.4H70z"/><path fill="#f17e5b" d="M76.5 68.8H78v5.8h-1.5z"/><path fill="#fcbf7f" d="M80 68.8h1.5v5.8H80z"/><path fill="#f17e5b" d="M28.5 66.2H30v8.4h-1.5z"/><path fill="#fcbf7f" d="M32 66.2h1.5v8.4H32z"/><path fill="#f17e5b" d="M62.5 66.2H64v8.4h-1.5z"/><path fill="#fcbf7f" d="M66 66.2h1.5v8.4H66zM27.5 60.5H29v7h-1.5z"/><path fill="#f17e5b" d="M23 60.5h1.5v7H23zM18.5 61.5H20v6.1h-1.5z"/><path fill="#fcbf7f" d="M22 61.5h1.5v6.1H22zM41.5 57.6H43v7.9h-1.5z"/><path fill="#f17e5b" d="M37 57.6h1.5v8H37zM32.5 58.7H34V66h-1.5z"/><path fill="#fcbf7f" d="M36 58.7h1.5V66H36zM51.5 56.6H53v8.9h-1.5z"/><path fill="#f17e5b" d="M47 56.8h1.5V66H47zM42.5 56.7H44v8.8h-1.5z"/><path fill="#fcbf7f" d="M46 56.7h1.5v8.7H46zM61.5 58H63v8h-1.5z"/><path fill="#f17e5b" d="M57 58h1.5v8H57zM52.5 56.6H54v9h-1.5z"/><path fill="#fcbf7f" d="M56 56.6h1.5v8.9H56zM75.5 59.5H77v8h-1.5z"/><path fill="#f17e5b" d="M71 59.5h1.5v8H71zM66.5 59.2H68v8.4h-1.5z"/><path fill="#fcbf7f" d="M70 59.2h1.5v8.4H70z"/><path fill="#f17e5b" d="M76.5 61.8H78v5.8h-1.5z"/><path fill="#fcbf7f" d="M80 61.8h1.5v5.8H80z"/><path fill="#f17e5b" d="M28.5 59.2H30v8.4h-1.5z"/><path fill="#fcbf7f" d="M32 59.2h1.5v8.4H32z"/><path fill="#f17e5b" d="M62.5 58.2H64v8.4h-1.5z"/><path fill="#fcbf7f" d="M66 58.2h1.5v8.4H66zM27.5 53.5H29v7h-1.5z"/><path fill="#f17e5b" d="M23 53.5h1.5v7H23zM18.5 56.2v4.4H20v-5.9z"/><path fill="#fcbf7f" d="M22 54.5h1.5v6.1H22zM41.5 48.5H43v8h-1.5z"/><path fill="#f17e5b" d="M37 48.5h1.5v8H37zM32.5 50.7H34v8.4h-1.5z"/><path fill="#fcbf7f" d="M36 50.7h1.5v8.4H36zM51.5 46H53v10h-1.5z"/><path fill="#f17e5b" d="M47 46h1.5v10H47zM42.5 47.2H44v8.4h-1.5z"/><path fill="#fcbf7f" d="M46 47.2h1.5v8.4H46zM61.5 47.5H63v9.3h-1.5z"/><path fill="#f17e5b" d="M57 47.5h1.5v9.3H57zM52.5 47.2H54v8.4h-1.5z"/><path fill="#fcbf7f" d="M56 47.2h1.5v8.4H56zM75.5 53.5H77v6.2h-1.5z"/><path fill="#f17e5b" d="M71 53.5h1.5v6.2H71zM66.5 51.2H68v7.6h-1.5z"/><path fill="#fcbf7f" d="M70 51.2h1.5v7.6H70z"/><path fill="#f17e5b" d="M76.5 54.8H78v5.5h-1.5z"/><path fill="#fcbf7f" d="M80 54.8h1.5v5.5H80z"/><path fill="#f17e5b" d="M28.5 50.7H30v8.4h-1.5z"/><path fill="#fcbf7f" d="M32 50.7h1.5v8.4H32zM27.5 49.5H29V53h-1.5z"/><path fill="#f17e5b" d="M23 49.5h1.5V53H23z"/><path fill="#fcbf7f" d="M41.5 39H43v9h-1.5z"/><path fill="#f17e5b" d="M37 39h1.5v9.1H37zM32.5 43.2v6.4H34v-8.4z"/><path fill="#fcbf7f" d="M36 41.2h1.5v8.4H36zM51.5 36.5H53v10h-1.5z"/><path fill="#f17e5b" d="M47 36.5h1.5v10H47zM42.5 39.2v6.9H44v-8.4z"/><path fill="#fcbf7f" d="M46 37.7h1.5v8.4H46z"/><path fill="#f17e5b" d="M28.5 46v4.6H30v-6.1z"/><path fill="#fcbf7f" d="M32 44.1h1.5v6.5H32z"/><path fill="#f17e5b" d="M62.5 50.5H64v6.9h-1.5z"/><path fill="#fcbf7f" d="M66 50.5h1.5v6.9H66zM61.5 39.6H63v8.2h-1.5z"/><path fill="#f17e5b" d="M57 39.6h1.5v8.2H57zM52.5 37.7H54v8.4h-1.5z"/><path fill="#fcbf7f" d="M56 37.7v8.4h1.5v-6.9zM75.5 49.6H77v3.1h-1.5z"/><path fill="#f17e5b" d="M71 49.3h1.5v3.5H71zM66.5 44H68v6.8h-1.5z"/><path fill="#fcbf7f" d="M70 44.2v6.6h1.5v-5.1z"/><path fill="#f17e5b" d="M62.5 41.5H64v8.2h-1.5z"/><path fill="#fcbf7f" d="M66 41.5v7.9h1.5v-6.9z"/><path fill="#f79a6c" d="M57 74.5h6v16h-6zM71 74.5h6v16h-6z"/><path fill="#f17e5b" d="m27.7 66.5-1.7-1-1.7 1c-.8.5-1.3 1.3-1.3 2.2v1.5c0-.9.5-1.8 1.3-2.2l1.7-1 1.7 1c.8.5 1.3 1.3 1.3 2.2v-1.5c0-.9-.5-1.8-1.3-2.2zm14-1-1.7-1-1.7 1c-.8.5-1.3 1.3-1.3 2.2v1.5c0-.9.5-1.8 1.3-2.2l1.7-1 1.7 1c.8.5 1.3 1.3 1.3 2.2v-1.5c0-.9-.5-1.7-1.3-2.2zm10 0-1.7-1-1.7 1c-.8.5-1.3 1.3-1.3 2.2v1.5c0-.9.5-1.8 1.3-2.2l1.7-1 1.7 1c.8.5 1.3 1.3 1.3 2.2v-1.5c0-.9-.5-1.8-1.3-2.2zm10 0-1.7-1-1.7 1c-.8.5-1.3 1.3-1.3 2.2v1.5c0-.9.5-1.8 1.3-2.2l1.7-1 1.7 1c.8.5 1.3 1.3 1.3 2.2v-1.5c0-.9-.5-1.8-1.3-2.2zm14 1-1.7-1-1.7 1c-.8.5-1.3 1.3-1.3 2.2v1.5c0-.9.5-1.8 1.3-2.2l1.7-1 1.7 1c.8.5 1.3 1.3 1.3 2.2v-1.5c0-.9-.5-1.8-1.3-2.2zm-29.9-1.4-.8-.6-.8.6c-.8.6-1.2 1.5-1.2 2.4V69c0-.9.4-1.8 1.2-2.4l.8-.6.8.6c.8.6 1.2 1.5 1.2 2.4v-1.5c0-.9-.4-1.8-1.2-2.4zm-14 .1-.8-.6-.8.6c-.8.6-1.2 1.5-1.2 2.4v1.5c0-.9.4-1.8 1.2-2.4l.8-.6.8.6c.8.6 1.2 1.5 1.2 2.4v-1.5c0-.9-.4-1.8-1.2-2.4zm4 0-.8-.6-.8.6c-.8.6-1.2 1.5-1.2 2.4v1.5c0-.9.4-1.8 1.2-2.4l.8-.6.8.6c.8.6 1.2 1.5 1.2 2.4v-1.5c0-.9-.4-1.8-1.2-2.4zm20-.1-.8-.6-.8.6c-.8.6-1.2 1.5-1.2 2.4V69c0-.9.4-1.8 1.2-2.4l.8-.6.8.6c.8.6 1.2 1.5 1.2 2.4v-1.5c0-.9-.4-1.8-1.2-2.4zm-34 2-.8-.6-.8.6c-.8.6-1.2 1.5-1.2 2.4V71c0-.9.4-1.8 1.2-2.4l.8-.6.8.6c.8.6 1.2 1.5 1.2 2.4v-1.5c0-.9-.4-1.8-1.2-2.4zm44-2-.8-.6-.8.6c-.8.6-1.2 1.5-1.2 2.4V69c0-.9.4-1.8 1.2-2.4l.8-.6.8.6c.8.6 1.2 1.5 1.2 2.4v-1.5c0-.9-.4-1.8-1.2-2.4zm4 0-.8-.6-.8.6c-.8.6-1.2 1.5-1.2 2.4V69c0-.9.4-1.8 1.2-2.4l.8-.6.8.6c.8.6 1.2 1.5 1.2 2.4v-1.5c0-.9-.4-1.8-1.2-2.4zm10 2-.8-.6-.8.6c-.8.6-1.2 1.5-1.2 2.4V71c0-.9.4-1.8 1.2-2.4l.8-.6.8.6c.8.6 1.2 1.5 1.2 2.4v-1.5c0-.9-.4-1.8-1.2-2.4zm-52.1-7.6-1.7-1-1.7 1c-.8.5-1.3 1.3-1.3 2.2v1.5c0-.9.5-1.8 1.3-2.2l1.7-1 1.7 1c.8.5 1.3 1.3 1.3 2.2v-1.5c0-.9-.5-1.8-1.3-2.2zm14-3-1.7-1-1.7 1c-.8.5-1.3 1.3-1.3 2.2v1.5c0-.9.5-1.8 1.3-2.2l1.7-1 1.7 1c.8.5 1.3 1.3 1.3 2.2v-1.5c0-.9-.5-1.7-1.3-2.2zm10-1-1.7-1-1.7 1c-.8.5-1.3 1.3-1.3 2.2v1.5c0-.9.5-1.8 1.3-2.2l1.7-1 1.7 1c.8.5 1.3 1.3 1.3 2.2v-1.5c0-.9-.5-1.8-1.3-2.2zm10 1-1.7-1-1.7 1c-.8.5-1.3 1.3-1.3 2.2v1.5c0-.9.5-1.8 1.3-2.2l1.7-1 1.7 1c.8.5 1.3 1.3 1.3 2.2v-1.5c0-.9-.5-1.8-1.3-2.2zm14 3-1.7-1-1.7 1c-.8.5-1.3 1.3-1.3 2.2v1.5c0-.9.5-1.8 1.3-2.2l1.7-1 1.7 1c.8.5 1.3 1.3 1.3 2.2v-1.5c0-.9-.5-1.8-1.3-2.2zm-29.9-4.4-.8-.6-.8.6c-.8.6-1.2 1.5-1.2 2.4V59c0-.9.4-1.8 1.2-2.4l.8-.6.8.6c.8.6 1.2 1.5 1.2 2.4v-1.5c0-.9-.4-1.8-1.2-2.4zm-14 3.1-.8-.6-.8.6c-.8.6-1.2 1.5-1.2 2.4v1.5c0-.9.4-1.8 1.2-2.4l.8-.6.8.6c.8.6 1.2 1.5 1.2 2.4v-1.5c0-.9-.4-1.8-1.2-2.4zm4-1-.8-.6-.8.6c-.8.6-1.2 1.5-1.2 2.4v1.5c0-.9.4-1.8 1.2-2.4l.8-.6.8.6c.8.6 1.2 1.5 1.2 2.4v-1.5c0-.9-.4-1.8-1.2-2.4zm20-2.1-.8-.6-.8.6c-.8.6-1.2 1.5-1.2 2.4V59c0-.9.4-1.8 1.2-2.4l.8-.6.8.6c.8.6 1.2 1.5 1.2 2.4v-1.5c0-.9-.4-1.8-1.2-2.4zm-34 5-.8-.6-.8.6c-.8.6-1.2 1.5-1.2 2.4V64c0-.9.4-1.8 1.2-2.4l.8-.6.8.6c.8.6 1.2 1.5 1.2 2.4v-1.5c0-.9-.4-1.8-1.2-2.4zm44-3-.8-.6-.8.6c-.8.6-1.2 1.5-1.2 2.4V61c0-.9.4-1.8 1.2-2.4l.8-.6.8.6c.8.6 1.2 1.5 1.2 2.4v-1.5c0-.9-.4-1.8-1.2-2.4zm4 1-.8-.6-.8.6c-.8.6-1.2 1.5-1.2 2.4V62c0-.9.4-1.8 1.2-2.4l.8-.6.8.6c.8.6 1.2 1.5 1.2 2.4v-1.5c0-.9-.4-1.8-1.2-2.4zm10 2-.8-.6-.8.6c-.8.6-1.2 1.5-1.2 2.4V64c0-.9.4-1.8 1.2-2.4l.8-.6.8.6c.8.6 1.2 1.5 1.2 2.4v-1.5c0-.9-.4-1.8-1.2-2.4zm-52.1-7.6-1.7-1-1.7 1c-.8.5-1.3 1.3-1.3 2.2v1.5c0-.9.5-1.8 1.3-2.2l1.7-1 1.7 1c.8.5 1.3 1.3 1.3 2.2v-1.5c0-.9-.5-1.8-1.3-2.2zm14-5-1.7-1-1.7 1c-.8.5-1.3 1.3-1.3 2.2v1.5c0-.9.5-1.8 1.3-2.2l1.7-1 1.7 1c.8.5 1.3 1.3 1.3 2.2v-1.5c0-.9-.5-1.7-1.3-2.2zm10-2-1.7-1-1.7 1c-.8.5-1.3 1.3-1.3 2.2v1.5c0-.9.5-1.8 1.3-2.2l1.7-1 1.7 1c.8.5 1.3 1.3 1.3 2.2v-1.5c0-.9-.5-1.8-1.3-2.2zm10 2-1.7-1-1.7 1c-.8.5-1.3 1.3-1.3 2.2v1.5c0-.9.5-1.8 1.3-2.2l1.7-1 1.7 1c.8.5 1.3 1.3 1.3 2.2v-1.5c0-.9-.5-1.8-1.3-2.2zm14 5-1.7-1-1.7 1c-.8.5-1.3 1.3-1.3 2.2v1.5c0-.9.5-1.8 1.3-2.2l1.7-1 1.7 1c.8.5 1.3 1.3 1.3 2.2v-1.5c0-.9-.5-1.8-1.3-2.2zm-29.9-6.4-.8-.6-.8.6c-.8.6-1.2 1.5-1.2 2.4V50c0-.9.4-1.8 1.2-2.4l.8-.6.8.6c.8.6 1.2 1.5 1.2 2.4v-1.5c0-.9-.4-1.8-1.2-2.4zm-14 4.1-.8-.6-.8.6c-.8.6-1.2 1.5-1.2 2.4v1.5c0-.9.4-1.8 1.2-2.4l.8-.6.8.6c.8.6 1.2 1.5 1.2 2.4v-1.5c0-.9-.4-1.8-1.2-2.4zm4-1-.8-.6-.8.6c-.8.6-1.2 1.5-1.2 2.4v1.5c0-.9.4-1.8 1.2-2.4l.8-.6.8.6c.8.6 1.2 1.5 1.2 2.4v-1.5c0-.9-.4-1.8-1.2-2.4zm20-3.1-.8-.6-.8.6c-.8.6-1.2 1.5-1.2 2.4V50c0-.9.4-1.8 1.2-2.4l.8-.6.8.6c.8.6 1.2 1.5 1.2 2.4v-1.5c0-.9-.4-1.8-1.2-2.4zm-34 7-.8-.6-.8.6c-.8.6-1.2 1.5-1.2 2.4V57c0-.9.4-1.8 1.2-2.4l.8-.6.8.6c.8.6 1.2 1.5 1.2 2.4v-1.5c0-.9-.4-1.8-1.2-2.4zm44-4-.8-.6-.8.6c-.8.6-1.2 1.5-1.2 2.4V53c0-.9.4-1.8 1.2-2.4l.8-.6.8.6c.8.6 1.2 1.5 1.2 2.4v-1.5c0-.9-.4-1.8-1.2-2.4zm4 1-.8-.6-.8.6c-.8.6-1.2 1.5-1.2 2.4V54c0-.9.4-1.8 1.2-2.4l.8-.6.8.6c.8.6 1.2 1.5 1.2 2.4v-1.5c0-.9-.4-1.8-1.2-2.4z"/><path fill="#f17e5b" d="m27.7 48.5-1.7-1-1.7 1c-.8.5-1.3 1.3-1.3 2.2v1.5c0-.9.5-1.8 1.3-2.2l1.7-1 1.7 1c.8.5 1.3 1.3 1.3 2.2v-1.5c0-.9-.5-1.8-1.3-2.2zm14-10-1.7-1-1.7 1c-.8.5-1.3 1.3-1.3 2.2v1.5c0-.9.5-1.8 1.3-2.2l1.7-1 1.7 1c.8.5 1.3 1.3 1.3 2.2v-1.5c0-.9-.5-1.7-1.3-2.2zm10-3-1.7-1-1.7 1c-.8.5-1.3 1.3-1.3 2.2v1.5c0-.9.5-1.8 1.3-2.2l1.7-1 1.7 1c.8.5 1.3 1.3 1.3 2.2v-1.5c0-.9-.5-1.8-1.3-2.2zm10 3-1.7-1-1.7 1c-.8.5-1.3 1.3-1.3 2.2v1.5c0-.9.5-1.8 1.3-2.2l1.7-1 1.7 1c.8.5 1.3 1.3 1.3 2.2v-1.5c0-.9-.5-1.8-1.3-2.2zm14 10-1.7-1-1.7 1c-.8.5-1.3 1.3-1.3 2.2v1.5c0-.9.5-1.8 1.3-2.2l1.7-1 1.7 1c.8.5 1.3 1.3 1.3 2.2v-1.5c0-.9-.5-1.8-1.3-2.2zM45.8 36.1l-.8-.6-.8.6c-.8.6-1.2 1.5-1.2 2.4V40c0-.9.4-1.8 1.2-2.4l.8-.6.8.6c.8.6 1.2 1.5 1.2 2.4v-1.5c0-.9-.4-1.8-1.2-2.4zm-14 7-.8-.6-.8.6c-.8.6-1.2 1.5-1.2 2.4V47c0-.9.4-1.8 1.2-2.4l.8-.6.8.6c.8.6 1.2 1.5 1.2 2.4v-1.5c0-.9-.4-1.8-1.2-2.4zm4-2.9-.8-.6-.8.6c-.8.6-1.2 1.5-1.2 2.4v1.5c0-.9.4-1.8 1.2-2.4l.8-.6.8.6c.8.6 1.2 1.5 1.2 2.4v-1.5c0-.9-.4-1.8-1.2-2.4zm20-4.1-.8-.6-.8.6c-.8.6-1.2 1.5-1.2 2.4V40c0-.9.4-1.8 1.2-2.4l.8-.6.8.6c.8.6 1.2 1.5 1.2 2.4v-1.5c0-.9-.4-1.8-1.2-2.4zm10 4-.8-.6-.8.6c-.8.6-1.2 1.5-1.2 2.4V44c0-.9.4-1.8 1.2-2.4l.8-.6.8.6c.8.6 1.2 1.5 1.2 2.4v-1.5c0-.9-.4-1.8-1.2-2.4zm4 3-.8-.6-.8.6c-.8.6-1.2 1.5-1.2 2.4V47c0-.9.4-1.8 1.2-2.4l.8-.6.8.6c.8.6 1.2 1.5 1.2 2.4v-1.5c0-.9-.4-1.8-1.2-2.4zm10 10-.8-.6-.8.6c-.8.6-1.2 1.5-1.2 2.4V57c0-.9.4-1.8 1.2-2.4l.8-.6.8.6c.8.6 1.2 1.5 1.2 2.4v-1.5c0-.9-.4-1.8-1.2-2.4z"/><path fill="#f79a6c" d="M53 74.5h4v16h-4zM63 74.5h4v16h-4zM67 74.5h4v16h-4zM77 74.5h4v16h-4zM37 74.5h6v16h-6z"/><path fill="#fcbf7f" d="M41.5 74.5H43v16h-1.5z"/><path fill="#f17e5b" d="M43 81c-.3 0-.5-.2-.5-.5s-.2-.5-.5-.5c-.1 0-.2 0-.3.1-.1.1-.3.1-.5 0-.1 0-.2-.1-.2-.3-.1-.5-.5-.8-1-.8s-.9.3-1 .8c0 .2-.1.3-.3.4-.2.1-.3 0-.5 0 0-.2-.1-.2-.2-.2-.3 0-.5.2-.5.5s-.2.5-.5.5-.5-.2-.5-.5c0-.9.9-1.6 1.8-1.5.3-.6 1-1 1.7-1s1.4.4 1.7 1c.9-.2 1.8.6 1.8 1.5 0 .3-.2.5-.5.5z"/><path fill="#f79a6c" d="M33 74.5h4v16h-4zM23 74.5h6v16h-6z"/><path fill="#fcbf7f" d="M27.5 74.5H29v16h-1.5z"/><path fill="#f79a6c" d="M29 74.5h4v16h-4zM19 74.5h4v16h-4z"/><path fill="#f17e5b" d="M18.5 74.5H20v16h-1.5z"/><path fill="#fcbf7f" d="M22 74.5h1.5v16H22zM32 74.5h1.5v16H32z"/><path fill="#f17e5b" d="M19 74.5h3.9V76H19zM28.5 74.5H30v16h-1.5z"/><path fill="#f17e5b" d="M29 74.5h3.9V76H29z"/><path fill="#fcbf7f" d="M36 74.5h1.5v16H36z"/><path fill="#f17e5b" d="M32.5 74.5H34v16h-1.5z"/><path fill="#f17e5b" d="M33 74.5h3.9V76H33zM23 74.5h6V76h-6z"/><path fill="#f79a6c" d="M47 74.5h6v16h-6z"/><path fill="#76bbb4" d="M27 63.5h-2v-1.9c0-.3.2-.6.4-.7l.6-.3.6.3c.3.2.4.4.4.7v1.9zM27 70.5h-2v-1.9c0-.3.2-.6.4-.7l.6-.3.6.3c.3.2.4.4.4.7v1.9zM27 56.5h-2v-1.9c0-.3.2-.6.4-.7l.6-.3.6.3c.3.2.4.4.4.7v1.9zM51 69.5h-2v-1.9c0-.3.2-.6.4-.7l.6-.3.6.3c.3.2.4.4.4.7v1.9zM51 59.5h-2v-1.9c0-.3.2-.6.4-.7l.6-.3.6.3c.3.2.4.4.4.7v1.9zM51 49.5h-2v-1.9c0-.3.2-.6.4-.7l.6-.3.6.3c.3.2.4.4.4.7v1.9zM51 39.5h-2v-1.9c0-.3.2-.6.4-.7l.6-.3.6.3c.3.2.4.4.4.7v1.9zM61 42.5h-2v-1.9c0-.3.2-.6.4-.7l.6-.3.6.3c.3.2.4.4.4.7v1.9zM61 51.5h-2v-1.9c0-.3.2-.6.4-.7l.6-.3.6.3c.3.2.4.4.4.7v1.9zM61 60.5h-2v-1.9c0-.3.2-.6.4-.7l.6-.3.6.3c.3.2.4.4.4.7v1.9zM61 69.5h-2v-1.9c0-.3.2-.6.4-.7l.6-.3.6.3c.3.2.4.4.4.7v1.9zM41 42.5h-2v-1.9c0-.3.2-.6.4-.7l.6-.3.6.3c.3.2.4.4.4.7v1.9zM41 51.5h-2v-1.9c0-.3.2-.6.4-.7l.6-.3.6.3c.3.2.4.4.4.7v1.9zM41 60.5h-2v-1.9c0-.3.2-.6.4-.7l.6-.3.6.3c.3.2.4.4.4.7v1.9zM41 69.5h-2v-1.9c0-.3.2-.6.4-.7l.6-.3.6.3c.3.2.4.4.4.7v1.9zM73 63.5h2v-1.9c0-.3-.2-.6-.4-.7l-.6-.4-.6.3c-.2.2-.4.5-.4.8v1.9zM73 70.5h2v-1.9c0-.3-.2-.6-.4-.7l-.6-.4-.6.3c-.2.2-.4.5-.4.8v1.9zM73 56.5h2v-1.9c0-.3-.2-.6-.4-.7l-.6-.4-.6.3c-.2.2-.4.5-.4.8v1.9zM39 81.5h2v4h-2zM25 81.5h2v4h-2zM49 81.5h2v4h-2zM59 81.5h2v4h-2zM73 81.5h2v4h-2z"/><path fill="#f79a6c" d="M43 74.5h4v16h-4z"/><path fill="#f17e5b" d="M23 74.5h1.5v16H23z"/><path fill="#f79a6c" d="M43 74.5h4v16h-4z"/><path fill="#fcbf7f" d="M46 74.5h1.5v16H46z"/><path fill="#f17e5b" d="M42.5 74.5H44v16h-1.5z"/><path fill="#f17e5b" d="M43 74.5h3.9V76H43zM37 74.5h6V76h-6z"/><path fill="#f17e5b" d="M37 74.5h1.5v16H37z"/><path fill="#fcbf7f" d="M51.5 74.5H53v16h-1.5z"/><path fill="#f17e5b" d="M53 81c-.3 0-.5-.2-.5-.5s-.2-.5-.5-.5c-.1 0-.2 0-.3.1-.1.1-.3.1-.5 0-.1 0-.2-.1-.2-.3-.1-.5-.5-.8-1-.8s-.9.3-1 .8c0 .2-.1.3-.3.4-.2.1-.3 0-.5 0 0-.2-.1-.2-.2-.2-.3 0-.5.2-.5.5s-.2.5-.5.5-.5-.2-.5-.5c0-.9.9-1.6 1.8-1.5.3-.6 1-1 1.7-1s1.4.4 1.7 1c.9-.2 1.8.6 1.8 1.5 0 .3-.2.5-.5.5z"/><path fill="#fcbf7f" d="M56 74.5h1.5v16H56z"/><path fill="#f17e5b" d="M52.5 74.5H54v16h-1.5z"/><path fill="#f17e5b" d="M53 74.5h3.9V76H53zM47 74.5h6V76h-6z"/><path fill="#f17e5b" d="M47 74.5h1.5v16H47z"/><path fill="#fcbf7f" d="M61.5 74.5H63v16h-1.5z"/><path fill="#f17e5b" d="M63 81c-.3 0-.5-.2-.5-.5s-.2-.5-.5-.5c-.1 0-.2 0-.3.1-.1.1-.3.1-.5 0-.1 0-.2-.1-.2-.3-.1-.5-.5-.8-1-.8s-.9.3-1 .8c0 .2-.1.3-.3.4-.2.1-.3 0-.5 0 0-.2-.1-.2-.2-.2-.3 0-.5.2-.5.5s-.2.5-.5.5-.5-.2-.5-.5c0-.9.9-1.6 1.8-1.5.3-.6 1-1 1.7-1s1.4.4 1.7 1c.9-.2 1.8.6 1.8 1.5 0 .3-.2.5-.5.5z"/><path fill="#fcbf7f" d="M66 74.5h1.5v16H66z"/><path fill="#f17e5b" d="M62.5 74.5H64v16h-1.5z"/><path fill="#f17e5b" d="M63 74.5h3.9V76H63z"/><path fill="#fcbf7f" d="M70 74.5h1.5v16H70z"/><path fill="#f17e5b" d="M66.5 74.5H68v16h-1.5z"/><path fill="#f17e5b" d="M67 74.5h3.9V76H67zM57 74.5h6V76h-6z"/><path fill="#f17e5b" d="M57 74.5h1.5v16H57z"/><path fill="#fcbf7f" d="M75.5 74.5H77v16h-1.5z"/><path fill="#f17e5b" d="M77 81c-.3 0-.5-.2-.5-.5s-.2-.5-.5-.5c-.1 0-.2 0-.3.1-.1.1-.3.1-.5 0-.1 0-.2-.1-.2-.3-.1-.5-.5-.8-1-.8s-.9.3-1 .8c0 .2-.1.3-.3.4-.1.1-.3 0-.5 0 0-.2-.1-.2-.2-.2-.3 0-.5.2-.5.5s-.2.5-.5.5-.5-.2-.5-.5c0-.9.9-1.6 1.8-1.5.3-.6 1-1 1.7-1s1.4.4 1.7 1c.9-.2 1.8.6 1.8 1.5 0 .3-.2.5-.5.5z"/><path fill="#fcbf7f" d="M80 74.5h1.5v16H80z"/><path fill="#f17e5b" d="M76.5 74.5H78v16h-1.5z"/><path fill="#f17e5b" d="M77 74.5h3.9V76H77zM71 74.5h6V76h-6z"/><path fill="#f17e5b" d="M71 74.5h1.5v16H71z"/><path fill="#594454" d="M29 67.6c-.3 0-.5-.2-.5-.5v-5.4c0-.7-.4-1.4-1-1.8l-1.5-.8-1.5.8c-.6.4-1 1.1-1 1.8v5.4c0 .3-.2.5-.5.5s-.5-.2-.5-.5v-5.4c0-1.1.6-2.1 1.5-2.7l1.7-1c.2-.1.3-.1.5 0l1.7 1c1 .5 1.5 1.6 1.5 2.7v5.4c.1.3-.1.5-.4.5z"/><path fill="#f17e5b" d="M27 72h-2c-.3 0-.5-.2-.5-.5v-.9c0-.3.2-.5.5-.5s.5.2.5.5v.4h1v-.4c0-.3.2-.5.5-.5s.5.2.5.5v.9c0 .3-.2.5-.5.5zM41 71h-2c-.3 0-.5-.2-.5-.5v-.9c0-.3.2-.5.5-.5s.5.2.5.5v.4h1v-.4c0-.3.2-.5.5-.5s.5.2.5.5v.9c0 .3-.2.5-.5.5zM51 71h-2c-.3 0-.5-.2-.5-.5v-.9c0-.3.2-.5.5-.5s.5.2.5.5v.4h1v-.4c0-.3.2-.5.5-.5s.5.2.5.5v.9c0 .3-.2.5-.5.5zM61 71h-2c-.3 0-.5-.2-.5-.5v-.9c0-.3.2-.5.5-.5s.5.2.5.5v.4h1v-.4c0-.3.2-.5.5-.5s.5.2.5.5v.9c0 .3-.2.5-.5.5zM75 72h-2c-.3 0-.5-.2-.5-.5v-.9c0-.3.2-.5.5-.5s.5.2.5.5v.4h1v-.4c0-.3.2-.5.5-.5s.5.2.5.5v.9c0 .3-.2.5-.5.5zM27 87h-2c-.3 0-.5-.2-.5-.5v-.9c0-.3.2-.5.5-.5s.5.2.5.5v.4h1v-.4c0-.3.2-.5.5-.5s.5.2.5.5v.9c0 .3-.2.5-.5.5zM41 87h-2c-.3 0-.5-.2-.5-.5v-.9c0-.3.2-.5.5-.5s.5.2.5.5v.4h1v-.4c0-.3.2-.5.5-.5s.5.2.5.5v.9c0 .3-.2.5-.5.5zM51 87h-2c-.3 0-.5-.2-.5-.5v-.9c0-.3.2-.5.5-.5s.5.2.5.5v.4h1v-.4c0-.3.2-.5.5-.5s.5.2.5.5v.9c0 .3-.2.5-.5.5zM61 87h-2c-.3 0-.5-.2-.5-.5v-.9c0-.3.2-.5.5-.5s.5.2.5.5v.4h1v-.4c0-.3.2-.5.5-.5s.5.2.5.5v.9c0 .3-.2.5-.5.5zM75 87h-2c-.3 0-.5-.2-.5-.5v-.9c0-.3.2-.5.5-.5s.5.2.5.5v.4h1v-.4c0-.3.2-.5.5-.5s.5.2.5.5v.9c0 .3-.2.5-.5.5zM27 65h-2c-.3 0-.5-.2-.5-.5v-.9c0-.3.2-.5.5-.5s.5.2.5.5v.4h1v-.4c0-.3.2-.5.5-.5s.5.2.5.5v.9c0 .3-.2.5-.5.5zM41 62h-2c-.3 0-.5-.2-.5-.5v-.9c0-.3.2-.5.5-.5s.5.2.5.5v.4h1v-.4c0-.3.2-.5.5-.5s.5.2.5.5v.9c0 .3-.2.5-.5.5zM51 61h-2c-.3 0-.5-.2-.5-.5v-.9c0-.3.2-.5.5-.5s.5.2.5.5v.4h1v-.4c0-.3.2-.5.5-.5s.5.2.5.5v.9c0 .3-.2.5-.5.5zM61 62h-2c-.3 0-.5-.2-.5-.5v-.9c0-.3.2-.5.5-.5s.5.2.5.5v.4h1v-.4c0-.3.2-.5.5-.5s.5.2.5.5v.9c0 .3-.2.5-.5.5zM75 65h-2c-.3 0-.5-.2-.5-.5v-.9c0-.3.2-.5.5-.5s.5.2.5.5v.4h1v-.4c0-.3.2-.5.5-.5s.5.2.5.5v.9c0 .3-.2.5-.5.5zM27 58h-2c-.3 0-.5-.2-.5-.5v-.9c0-.3.2-.5.5-.5s.5.2.5.5v.4h1v-.4c0-.3.2-.5.5-.5s.5.2.5.5v.9c0 .3-.2.5-.5.5zM41 53h-2c-.3 0-.5-.2-.5-.5v-.9c0-.3.2-.5.5-.5s.5.2.5.5v.4h1v-.4c0-.3.2-.5.5-.5s.5.2.5.5v.9c0 .3-.2.5-.5.5zM51 51h-2c-.3 0-.5-.2-.5-.5v-.9c0-.3.2-.5.5-.5s.5.2.5.5v.4h1v-.4c0-.3.2-.5.5-.5s.5.2.5.5v.9c0 .3-.2.5-.5.5zM61 53h-2c-.3 0-.5-.2-.5-.5v-.9c0-.3.2-.5.5-.5s.5.2.5.5v.4h1v-.4c0-.3.2-.5.5-.5s.5.2.5.5v.9c0 .3-.2.5-.5.5zM41 44h-2c-.3 0-.5-.2-.5-.5v-.9c0-.3.2-.5.5-.5s.5.2.5.5v.4h1v-.4c0-.3.2-.5.5-.5s.5.2.5.5v.9c0 .3-.2.5-.5.5zM51 41h-2c-.3 0-.5-.2-.5-.5v-.9c0-.3.2-.5.5-.5s.5.2.5.5v.4h1v-.4c0-.3.2-.5.5-.5s.5.2.5.5v.9c0 .3-.2.5-.5.5zM61 44h-2c-.3 0-.5-.2-.5-.5v-.9c0-.3.2-.5.5-.5s.5.2.5.5v.4h1v-.4c0-.3.2-.5.5-.5s.5.2.5.5v.9c0 .3-.2.5-.5.5zM75 58h-2c-.3 0-.5-.2-.5-.5v-.9c0-.3.2-.5.5-.5s.5.2.5.5v.4h1v-.4c0-.3.2-.5.5-.5s.5.2.5.5v.9c0 .3-.2.5-.5.5z"/><path fill="#594454" d="M29 74.6c-.3 0-.5-.2-.5-.5v-5.4c0-.7-.4-1.4-1-1.8l-1.5-.8-1.5.8c-.6.4-1 1.1-1 1.8v5.4c0 .3-.2.5-.5.5s-.5-.2-.5-.5v-5.4c0-1.1.6-2.1 1.5-2.7l1.7-1c.2-.1.3-.1.5 0l1.7 1c1 .5 1.5 1.6 1.5 2.7v5.4c.1.3-.1.5-.4.5zM27 57h-2c-.3 0-.5-.2-.5-.5v-1.9c0-.5.3-.9.7-1.2l.6-.3c.2-.1.3-.1.5 0l.6.3c.4.2.7.7.7 1.2v1.9c-.1.3-.3.5-.6.5zm-1.5-1h1v-1.4c0-.1-.1-.2-.2-.3l-.3-.2-.3.2c-.1.1-.2.2-.2.3V56zM53 73.6c-.3 0-.5-.2-.5-.5v-5.4c0-.7-.4-1.4-1-1.8l-1.5-.8-1.5.8c-.6.4-1 1.1-1 1.8v5.4c0 .3-.2.5-.5.5s-.5-.2-.5-.5v-5.4c0-1.1.6-2.1 1.5-2.7l1.7-1c.2-.1.3-.1.5 0l1.7 1c1 .5 1.5 1.6 1.5 2.7v5.4c.1.3-.1.5-.4.5zM53 63.6c-.3 0-.5-.2-.5-.5v-5.4c0-.7-.4-1.4-1-1.8l-1.5-.8-1.5.8c-.6.4-1 1.1-1 1.8v5.4c0 .3-.2.5-.5.5s-.5-.2-.5-.5v-5.4c0-1.1.6-2.1 1.5-2.7l1.7-1c.2-.1.3-.1.5 0l1.7 1c1 .5 1.5 1.6 1.5 2.7v5.4c.1.3-.1.5-.4.5zM53 53.6c-.3 0-.5-.2-.5-.5v-5.4c0-.7-.4-1.4-1-1.8l-1.5-.8-1.5.8c-.6.4-1 1.1-1 1.8v5.4c0 .3-.2.5-.5.5s-.5-.2-.5-.5v-5.4c0-1.1.6-2.1 1.5-2.7l1.7-1c.2-.1.3-.1.5 0l1.7 1c1 .5 1.5 1.6 1.5 2.7v5.4c.1.3-.1.5-.4.5zM53 43.6c-.3 0-.5-.2-.5-.5v-5.4c0-.7-.4-1.4-1-1.8l-1.5-.8-1.5.8c-.6.4-1 1.1-1 1.8v5.4c0 .3-.2.5-.5.5s-.5-.2-.5-.5v-5.4c0-1.1.6-2.1 1.5-2.7l1.7-1c.2-.1.3-.1.5 0l1.7 1c1 .5 1.5 1.6 1.5 2.7v5.4c.1.3-.1.5-.4.5z"/><path fill="#594454" d="M51 70h-2c-.3 0-.5-.2-.5-.5v-1.9c0-.5.3-.9.7-1.2l.6-.3c.2-.1.3-.1.5 0l.6.3c.4.2.7.7.7 1.2v1.9c-.1.3-.3.5-.6.5zm-1.5-1h1v-1.4c0-.1-.1-.2-.2-.3l-.3-.2-.3.2c-.1.1-.2.2-.2.3V69zM51 50h-2c-.3 0-.5-.2-.5-.5v-1.9c0-.5.3-.9.7-1.2l.6-.3c.2-.1.3-.1.5 0l.6.3c.4.2.7.7.7 1.2v1.9c-.1.3-.3.5-.6.5zm-1.5-1h1v-1.4c0-.1-.1-.2-.2-.3l-.3-.2-.3.2c-.1.1-.2.2-.2.3V49zM51 40h-2c-.3 0-.5-.2-.5-.5v-1.9c0-.5.3-.9.7-1.2l.6-.3c.2-.1.3-.1.5 0l.6.3c.4.2.7.7.7 1.2v1.9c-.1.3-.3.5-.6.5zm-1.5-1h1v-1.4c0-.1-.1-.2-.2-.3l-.3-.2-.3.2c-.1.1-.2.2-.2.3V39zM63 46.6c-.3 0-.5-.2-.5-.5v-5.4c0-.7-.4-1.4-1-1.8l-1.5-.8-1.5.8c-.6.4-1 1.1-1 1.8v5.4c0 .3-.2.5-.5.5s-.5-.2-.5-.5v-5.4c0-1.1.6-2.1 1.5-2.7l1.7-1c.2-.1.3-.1.5 0l1.7 1c1 .5 1.5 1.6 1.5 2.7v5.4c.1.3-.1.5-.4.5z"/><path fill="#594454" d="M61 43h-2c-.3 0-.5-.2-.5-.5v-1.9c0-.5.3-.9.7-1.2l.6-.3c.2-.1.3-.1.5 0l.6.3c.4.2.7.7.7 1.2v1.9c-.1.3-.3.5-.6.5zm-1.5-1h1v-1.4c0-.1-.1-.2-.2-.3l-.3-.2-.3.2c-.1.1-.2.2-.2.3V42zM63 55.6c-.3 0-.5-.2-.5-.5v-5.4c0-.7-.4-1.4-1-1.8l-1.5-.8-1.5.8c-.6.4-1 1.1-1 1.8v5.4c0 .3-.2.5-.5.5s-.5-.2-.5-.5v-5.4c0-1.1.6-2.1 1.5-2.7l1.7-1c.2-.1.3-.1.5 0l1.7 1c1 .5 1.5 1.6 1.5 2.7v5.4c.1.3-.1.5-.4.5z"/><path fill="#594454" d="M61 52h-2c-.3 0-.5-.2-.5-.5v-1.9c0-.5.3-.9.7-1.2l.6-.3c.2-.1.3-.1.5 0l.6.3c.4.2.7.7.7 1.2v1.9c-.1.3-.3.5-.6.5zm-1.5-1h1v-1.4c0-.1-.1-.2-.2-.3l-.3-.2-.3.2c-.1.1-.2.2-.2.3V51zM63 64.6c-.3 0-.5-.2-.5-.5v-5.4c0-.7-.4-1.4-1-1.8l-1.5-.8-1.5.8c-.6.4-1 1.1-1 1.8v5.4c0 .3-.2.5-.5.5s-.5-.2-.5-.5v-5.4c0-1.1.6-2.1 1.5-2.7l1.7-1c.2-.1.3-.1.5 0l1.7 1c1 .5 1.5 1.6 1.5 2.7v5.4c.1.3-.1.5-.4.5z"/><path fill="#594454" d="M63 73.6c-.3 0-.5-.2-.5-.5v-5.4c0-.7-.4-1.4-1-1.8l-1.5-.8-1.5.8c-.6.4-1 1.1-1 1.8v5.4c0 .3-.2.5-.5.5s-.5-.2-.5-.5v-5.4c0-1.1.6-2.1 1.5-2.7l1.7-1c.2-.1.3-.1.5 0l1.7 1c1 .5 1.5 1.6 1.5 2.7v5.4c.1.3-.1.5-.4.5z"/><path fill="#594454" d="M61 70h-2c-.3 0-.5-.2-.5-.5v-1.9c0-.5.3-.9.7-1.2l.6-.3c.2-.1.3-.1.5 0l.6.3c.4.2.7.7.7 1.2v1.9c-.1.3-.3.5-.6.5zm-1.5-1h1v-1.4c0-.1-.1-.2-.2-.3l-.3-.2-.3.2c-.1.1-.2.2-.2.3V69zM47 91h-4c-.3 0-.5-.2-.5-.5v-16c0-.3.2-.5.5-.5h4c.3 0 .5.2.5.5v16c0 .3-.2.5-.5.5zm-3.5-1h3V75h-3v15z"/><path fill="#594454" d="M47 75h-4c-.3 0-.5-.2-.5-.5v-7c0-1.1.5-2.1 1.4-2.8l.8-.6c.2-.1.4-.1.6 0l.8.6c.9.7 1.4 1.7 1.4 2.8v7c0 .3-.2.5-.5.5zm-3.5-1h3v-6.5c0-.8-.4-1.5-1-2l-.5-.4-.5.4c-.6.5-1 1.2-1 2V74z"/><path fill="#594454" d="M47 69c-.3 0-.5-.2-.5-.5v-11c0-.8-.4-1.5-1-2l-.5-.4-.5.4c-.6.5-1 1.2-1 2v11c0 .3-.2.5-.5.5s-.5-.2-.5-.5v-11c0-1.1.5-2.1 1.4-2.8l.8-.6c.2-.1.4-.1.6 0l.8.6c.9.7 1.4 1.7 1.4 2.8v11c0 .3-.2.5-.5.5z"/><path fill="#594454" d="M47 59c-.3 0-.5-.2-.5-.5v-10c0-.8-.4-1.5-1-2l-.5-.4-.5.4c-.6.5-1 1.2-1 2v10c0 .3-.2.5-.5.5s-.5-.2-.5-.5v-10c0-1.1.5-2.1 1.4-2.8l.8-.6c.2-.1.4-.1.6 0l.8.6c.9.7 1.4 1.7 1.4 2.8v10c0 .3-.2.5-.5.5z"/><path fill="#594454" d="M47 49c-.3 0-.5-.2-.5-.5v-10c0-.8-.4-1.5-1-2l-.5-.4-.5.4c-.6.5-1 1.2-1 2v7c0 .3-.2.5-.5.5s-.5-.2-.5-.5v-7c0-1.1.5-2.1 1.4-2.8l.8-.6c.2-.1.4-.1.6 0l.8.6c.9.7 1.4 1.7 1.4 2.8v10c0 .3-.2.5-.5.5zM37 75h-4c-.3 0-.5-.2-.5-.5v-7c0-1.1.5-2.1 1.4-2.8l.8-.6c.2-.1.4-.1.6 0l.8.6c.9.7 1.4 1.7 1.4 2.8v7c0 .3-.2.5-.5.5zm-3.5-1h3v-6.5c0-.8-.4-1.5-1-2l-.5-.4-.5.4c-.6.5-1 1.2-1 2V74z"/><path fill="#594454" d="M37 67c-.3 0-.5-.2-.5-.5v-7c0-.8-.4-1.5-1-2l-.5-.4-.5.4c-.6.5-1 1.2-1 2v7c0 .3-.2.5-.5.5s-.5-.2-.5-.5v-7c0-1.1.5-2.1 1.4-2.8l.8-.6c.2-.1.4-.1.6 0l.8.6c.9.7 1.4 1.7 1.4 2.8v7c0 .3-.2.5-.5.5z"/><path fill="#594454" d="M37 59c-.3 0-.5-.2-.5-.5v-7c0-.8-.4-1.5-1-2l-.5-.4-.5.4c-.6.5-1 1.2-1 2v7c0 .3-.2.5-.5.5s-.5-.2-.5-.5v-7c0-1.1.5-2.1 1.4-2.8l.8-.6c.2-.1.4-.1.6 0l.8.6c.9.7 1.4 1.7 1.4 2.8v7c0 .3-.2.5-.5.5z"/><path fill="#594454" d="M37 50c-.3 0-.5-.2-.5-.5v-7c0-.8-.4-1.5-1-2l-.5-.4-.5.4c-.6.5-1 1.2-1 2v7c0 .3-.2.5-.5.5s-.5-.2-.5-.5v-7c0-1.1.5-2.1 1.4-2.8l.8-.6c.2-.1.4-.1.6 0l.8.6c.9.7 1.4 1.7 1.4 2.8v7c0 .3-.2.5-.5.5zM33 75h-4c-.3 0-.5-.2-.5-.5v-7c0-1.1.5-2.1 1.4-2.8l.8-.6c.2-.1.4-.1.6 0l.8.6c.9.7 1.4 1.7 1.4 2.8v7c0 .3-.2.5-.5.5zm-3.5-1h3v-6.5c0-.8-.4-1.5-1-2l-.5-.4-.5.4c-.6.5-1 1.2-1 2V74z"/><path fill="#594454" d="M33 68c-.3 0-.5-.2-.5-.5v-7c0-.8-.4-1.5-1-2l-.5-.4-.5.4c-.6.5-1 1.2-1 2v7c0 .3-.2.5-.5.5s-.5-.2-.5-.5v-7c0-1.1.5-2.1 1.4-2.8l.8-.6c.2-.1.4-.1.6 0l.8.6c.9.7 1.4 1.7 1.4 2.8v7c0 .3-.2.5-.5.5z"/><path fill="#594454" d="M33 60c-.3 0-.5-.2-.5-.5v-7c0-.8-.4-1.5-1-2l-.5-.4-.5.4c-.6.5-1 1.2-1 2v7c0 .3-.2.5-.5.5s-.5-.2-.5-.5v-7c0-1.1.5-2.1 1.4-2.8l.8-.6c.2-.1.4-.1.6 0l.8.6c.9.7 1.4 1.7 1.4 2.8v7c0 .3-.2.5-.5.5z"/><path fill="#594454" d="M33 53c-.3 0-.5-.2-.5-.5v-7c0-.8-.4-1.5-1-2l-.5-.4-.5.4c-.6.5-1 1.2-1 2v7c0 .3-.2.5-.5.5s-.5-.2-.5-.5v-7c0-1.1.5-2.1 1.4-2.8l.8-.6c.2-.1.4-.1.6 0l.8.6c.9.7 1.4 1.7 1.4 2.8v7c0 .3-.2.5-.5.5zM57 75h-4c-.3 0-.5-.2-.5-.5v-7c0-1.1.5-2.1 1.4-2.8l.8-.6c.2-.1.4-.1.6 0l.8.6c.9.7 1.4 1.7 1.4 2.8v7c0 .3-.2.5-.5.5zm-3.5-1h3v-6.5c0-.8-.4-1.5-1-2l-.5-.4-.5.4c-.6.5-1 1.2-1 2V74z"/><path fill="#594454" d="M57 68c-.3 0-.5-.2-.5-.5v-10c0-.8-.4-1.5-1-2l-.5-.4-.5.4c-.6.5-1 1.2-1 2v10c0 .3-.2.5-.5.5s-.5-.2-.5-.5v-10c0-1.1.5-2.1 1.4-2.8l.8-.6c.2-.1.4-.1.6 0l.8.6c.9.7 1.4 1.7 1.4 2.8v10c0 .3-.2.5-.5.5z"/><path fill="#594454" d="M57 58c-.3 0-.5-.2-.5-.5v-9c0-.8-.4-1.5-1-2l-.5-.4-.5.4c-.6.5-1 1.2-1 2v7c0 .3-.2.5-.5.5s-.5-.2-.5-.5v-7c0-1.1.5-2.1 1.4-2.8l.8-.6c.2-.1.4-.1.6 0l.8.6c.9.7 1.4 1.7 1.4 2.8v9c0 .3-.2.5-.5.5z"/><path fill="#594454" d="M57 50c-.3 0-.5-.2-.5-.5v-11c0-.8-.4-1.5-1-2l-.5-.4-.5.4c-.6.5-1 1.2-1 2v11c0 .3-.2.5-.5.5s-.5-.2-.5-.5v-11c0-1.1.5-2.1 1.4-2.8l.8-.6c.2-.1.4-.1.6 0l.8.6c.9.7 1.4 1.7 1.4 2.8v11c0 .3-.2.5-.5.5zM43 91h-6c-.3 0-.5-.2-.5-.5v-16c0-.3.2-.5.5-.5h6c.3 0 .5.2.5.5v16c0 .3-.2.5-.5.5zm-5.5-1h5V75h-5v15z"/><path fill="#594454" d="M37 91h-4c-.3 0-.5-.2-.5-.5v-16c0-.3.2-.5.5-.5h4c.3 0 .5.2.5.5v16c0 .3-.2.5-.5.5zm-3.5-1h3V75h-3v15z"/><path fill="#594454" d="M33 91h-4c-.3 0-.5-.2-.5-.5v-16c0-.3.2-.5.5-.5h4c.3 0 .5.2.5.5v16c0 .3-.2.5-.5.5zm-3.5-1h3V75h-3v15zM23 63c-.3 0-.5-.2-.5-.5v-7c0-.8-.4-1.5-1-2l-.5-.4-.5.4c-.6.5-1 1.2-1 2v7c0 .3-.2.5-.5.5s-.5-.2-.5-.5v-7c0-1.1.5-2.1 1.4-2.8l.8-.6c.2-.1.4-.1.6 0l.8.6c.9.7 1.4 1.7 1.4 2.8v7c0 .3-.2.5-.5.5z"/><path fill="#594454" d="M23 70c-.3 0-.5-.2-.5-.5v-7c0-.8-.4-1.5-1-2l-.5-.4-.5.4c-.6.5-1 1.2-1 2v7c0 .3-.2.5-.5.5s-.5-.2-.5-.5v-7c0-1.1.5-2.1 1.4-2.8l.8-.6c.2-.1.4-.1.6 0l.8.6c.9.7 1.4 1.7 1.4 2.8v7c0 .3-.2.5-.5.5z"/><path fill="#594454" d="M23 77c-.3 0-.5-.2-.5-.5v-7c0-.8-.4-1.5-1-2l-.5-.4-.5.4c-.6.5-1 1.2-1 2v7c0 .3-.2.5-.5.5s-.5-.2-.5-.5v-7c0-1.1.5-2.1 1.4-2.8l.8-.6c.2-.1.4-.1.6 0l.8.6c.9.7 1.4 1.7 1.4 2.8v7c0 .3-.2.5-.5.5z"/><path fill="#f17e5b" d="M55 54c-.3 0-.5-.2-.5-.5v-4c0-.3.2-.5.5-.5s.5.2.5.5v4c0 .3-.2.5-.5.5zM55 64c-.3 0-.5-.2-.5-.5v-5c0-.3.2-.5.5-.5s.5.2.5.5v5c0 .3-.2.5-.5.5zM45 54c-.3 0-.5-.2-.5-.5v-4c0-.3.2-.5.5-.5s.5.2.5.5v4c0 .3-.2.5-.5.5zM55 45c-.3 0-.5-.2-.5-.5v-5c0-.3.2-.5.5-.5s.5.2.5.5v5c0 .3-.2.5-.5.5zM45 45c-.3 0-.5-.2-.5-.5v-5c0-.3.2-.5.5-.5s.5.2.5.5v5c0 .3-.2.5-.5.5zM45 64c-.3 0-.5-.2-.5-.5v-5c0-.3.2-.5.5-.5s.5.2.5.5v5c0 .3-.2.5-.5.5zM35 56c-.3 0-.5-.2-.5-.5v-3c0-.3.2-.5.5-.5s.5.2.5.5v3c0 .3-.2.5-.5.5zM35 64c-.3 0-.5-.2-.5-.5v-3c0-.3.2-.5.5-.5s.5.2.5.5v3c0 .3-.2.5-.5.5zM31 57c-.3 0-.5-.2-.5-.5v-3c0-.3.2-.5.5-.5s.5.2.5.5v3c0 .3-.2.5-.5.5zM35 48c-.3 0-.5-.2-.5-.5v-4c0-.3.2-.5.5-.5s.5.2.5.5v4c0 .3-.2.5-.5.5zM31 49c-.3 0-.5-.2-.5-.5v-2c0-.3.2-.5.5-.5s.5.2.5.5v2c0 .3-.2.5-.5.5zM31 64c-.3 0-.5-.2-.5-.5v-2c0-.3.2-.5.5-.5s.5.2.5.5v2c0 .3-.2.5-.5.5z"/><path fill="#594454" d="M50 34.9c-.3 0-.5-.2-.5-.5v-2c0-.3.2-.5.5-.5s.5.2.5.5v2c0 .3-.2.5-.5.5zM60 38c-.3 0-.5-.2-.5-.5v-2c0-.3.2-.5.5-.5s.5.2.5.5v2c0 .3-.2.5-.5.5zM43 49.6c-.3 0-.5-.2-.5-.5v-8.4c0-.7-.4-1.4-1-1.8l-1.5-.8-1.5.8c-.6.4-1 1.1-1 1.8v5.4c0 .3-.2.5-.5.5s-.5-.2-.5-.5v-5.4c0-1.1.6-2.1 1.5-2.7l1.7-1c.2-.1.3-.1.5 0l1.7 1c1 .5 1.5 1.6 1.5 2.7v8.4c.1.3-.1.5-.4.5z"/><path fill="#594454" d="M41 43h-2c-.3 0-.5-.2-.5-.5v-1.9c0-.5.3-.9.7-1.2l.6-.3c.2-.1.3-.1.5 0l.6.3c.4.2.7.7.7 1.2v1.9c-.1.3-.3.5-.6.5zm-1.5-1h1v-1.4c0-.1-.1-.2-.2-.3l-.3-.2-.3.2c-.1.1-.2.2-.2.3V42zM43 55.6c-.3 0-.5-.2-.5-.5v-5.4c0-.7-.4-1.4-1-1.8l-1.5-.8-1.5.8c-.6.4-1 1.1-1 1.8v5.4c0 .3-.2.5-.5.5s-.5-.2-.5-.5v-5.4c0-1.1.6-2.1 1.5-2.7l1.7-1c.2-.1.3-.1.5 0l1.7 1c1 .5 1.5 1.6 1.5 2.7v5.4c.1.3-.1.5-.4.5z"/><path fill="#594454" d="M41 52h-2c-.3 0-.5-.2-.5-.5v-1.9c0-.5.3-.9.7-1.2l.6-.3c.2-.1.3-.1.5 0l.6.3c.4.2.7.7.7 1.2v1.9c-.1.3-.3.5-.6.5zm-1.5-1h1v-1.4c0-.1-.1-.2-.2-.3l-.3-.2-.3.2c-.1.1-.2.2-.2.3V51zM43 64.6c-.3 0-.5-.2-.5-.5v-5.4c0-.7-.4-1.4-1-1.8l-1.5-.8-1.5.8c-.6.4-1 1.1-1 1.8v5.4c0 .3-.2.5-.5.5s-.5-.2-.5-.5v-5.4c0-1.1.6-2.1 1.5-2.7l1.7-1c.2-.1.3-.1.5 0l1.7 1c1 .5 1.5 1.6 1.5 2.7v5.4c.1.3-.1.5-.4.5z"/><path fill="#594454" d="M43 73.6c-.3 0-.5-.2-.5-.5v-5.4c0-.7-.4-1.4-1-1.8l-1.5-.8-1.5.8c-.6.4-1 1.1-1 1.8v5.4c0 .3-.2.5-.5.5s-.5-.2-.5-.5v-5.4c0-1.1.6-2.1 1.5-2.7l1.7-1c.2-.1.3-.1.5 0l1.7 1c1 .5 1.5 1.6 1.5 2.7v5.4c.1.3-.1.5-.4.5z"/><path fill="#594454" d="M41 70h-2c-.3 0-.5-.2-.5-.5v-1.9c0-.5.3-.9.7-1.2l.6-.3c.2-.1.3-.1.5 0l.6.3c.4.2.7.7.7 1.2v1.9c-.1.3-.3.5-.6.5zm-1.5-1h1v-1.4c0-.1-.1-.2-.2-.3l-.3-.2-.3.2c-.1.1-.2.2-.2.3V69zM40 38c-.3 0-.5-.2-.5-.5v-2c0-.3.2-.5.5-.5s.5.2.5.5v2c0 .3-.2.5-.5.5zM29 56.6c-.3 0-.5-.2-.5-.5v-5.4c0-.7-.4-1.4-1-1.8l-1.5-.8-1.5.8c-.6.4-1 1.1-1 1.8v5.4c0 .3-.2.5-.5.5s-.5-.2-.5-.5v-5.4c0-1.1.6-2.1 1.5-2.7l1.7-1c.2-.1.3-.1.5 0l1.7 1c1 .5 1.5 1.6 1.5 2.7v5.4c.1.3-.1.5-.4.5z"/><path fill="#594454" d="M29 60.6c-.3 0-.5-.2-.5-.5v-5.4c0-.7-.4-1.4-1-1.8l-1.5-.8-1.5.8c-.6.4-1 1.1-1 1.8v5.4c0 .3-.2.5-.5.5s-.5-.2-.5-.5v-5.4c0-1.1.6-2.1 1.5-2.7l1.7-1c.2-.1.3-.1.5 0l1.7 1c1 .5 1.5 1.6 1.5 2.7v5.4c.1.3-.1.5-.4.5zM26 48c-.3 0-.5-.2-.5-.5v-2c0-.3.2-.5.5-.5s.5.2.5.5v2c0 .3-.2.5-.5.5zM77 67.6c-.3 0-.5-.2-.5-.5v-5.4c0-.7-.4-1.4-1-1.8l-1.5-.8-1.5.8c-.6.4-1 1.1-1 1.8v5.4c0 .3-.2.5-.5.5s-.5-.2-.5-.5v-5.4c0-1.1.6-2.1 1.5-2.7l1.7-1c.2-.1.3-.1.5 0l1.7 1c1 .5 1.5 1.6 1.5 2.7v5.4c.1.3-.1.5-.4.5z"/><path fill="#594454" d="M75 71h-2c-.3 0-.5-.2-.5-.5v-1.9c0-.5.3-.9.7-1.2l.6-.3c.2-.1.3-.1.5 0l.6.3c.4.2.7.7.7 1.2v1.9c-.1.3-.3.5-.6.5zm-1.5-1h1v-1.4c0-.1-.1-.2-.2-.3l-.3-.2-.3.2c-.1.1-.2.2-.2.3V70z"/><path fill="#594454" d="M77 74.6c-.3 0-.5-.2-.5-.5v-5.4c0-.7-.4-1.4-1-1.8l-1.5-.8-1.5.8c-.6.4-1 1.1-1 1.8v5.4c0 .3-.2.5-.5.5s-.5-.2-.5-.5v-5.4c0-1.1.6-2.1 1.5-2.7l1.7-1c.2-.1.3-.1.5 0l1.7 1c1 .5 1.5 1.6 1.5 2.7v5.4c.1.3-.1.5-.4.5zM75 57h-2c-.3 0-.5-.2-.5-.5v-1.9c0-.5.3-.9.7-1.2l.6-.3c.2-.1.3-.1.5 0l.6.3c.4.2.7.7.7 1.2v1.9c-.1.3-.3.5-.6.5zm-1.5-1h1v-1.4c0-.1-.1-.2-.2-.3l-.3-.2-.3.2c-.1.1-.2.2-.2.3V56zM67 75h-4c-.3 0-.5-.2-.5-.5v-7c0-1.1.5-2.1 1.4-2.8l.8-.6c.2-.1.4-.1.6 0l.8.6c.9.7 1.4 1.7 1.4 2.8v7c0 .3-.2.5-.5.5zm-3.5-1h3v-6.5c0-.8-.4-1.5-1-2l-.5-.4-.5.4c-.6.5-1 1.2-1 2V74z"/><path fill="#594454" d="M67 67c-.3 0-.5-.2-.5-.5v-7c0-.8-.4-1.5-1-2l-.5-.4-.5.4c-.6.5-1 1.2-1 2v7c0 .3-.2.5-.5.5s-.5-.2-.5-.5v-7c0-1.1.5-2.1 1.4-2.8l.8-.6c.2-.1.4-.1.6 0l.8.6c.9.7 1.4 1.7 1.4 2.8v7c0 .3-.2.5-.5.5z"/><path fill="#594454" d="M67 59c-.3 0-.5-.2-.5-.5v-7c0-.8-.4-1.5-1-2l-.5-.4-.5.4c-.6.5-1 1.2-1 2v7c0 .3-.2.5-.5.5s-.5-.2-.5-.5v-7c0-1.1.5-2.1 1.4-2.8l.8-.6c.2-.1.4-.1.6 0l.8.6c.9.7 1.4 1.7 1.4 2.8v7c0 .3-.2.5-.5.5z"/><path fill="#594454" d="M67 50c-.3 0-.5-.2-.5-.5v-7c0-.8-.4-1.5-1-2l-.5-.4-.5.4c-.6.5-1 1.2-1 2v7c0 .3-.2.5-.5.5s-.5-.2-.5-.5v-7c0-1.1.5-2.1 1.4-2.8l.8-.6c.2-.1.4-.1.6 0l.8.6c.9.7 1.4 1.7 1.4 2.8v7c0 .3-.2.5-.5.5zM71 75h-4c-.3 0-.5-.2-.5-.5v-7c0-1.1.5-2.1 1.4-2.8l.8-.6c.2-.1.4-.1.6 0l.8.6c.9.7 1.4 1.7 1.4 2.8v7c0 .3-.2.5-.5.5zm-3.5-1h3v-6.5c0-.8-.4-1.5-1-2l-.5-.4-.5.4c-.6.5-1 1.2-1 2V74z"/><path fill="#594454" d="M71 68c-.3 0-.5-.2-.5-.5v-7c0-.8-.4-1.5-1-2l-.5-.4-.5.4c-.6.5-1 1.2-1 2v7c0 .3-.2.5-.5.5s-.5-.2-.5-.5v-7c0-1.1.5-2.1 1.4-2.8l.8-.6c.2-.1.4-.1.6 0l.8.6c.9.7 1.4 1.7 1.4 2.8v7c0 .3-.2.5-.5.5z"/><path fill="#594454" d="M71 60c-.3 0-.5-.2-.5-.5v-7c0-.8-.4-1.5-1-2l-.5-.4-.5.4c-.6.5-1 1.2-1 2v7c0 .3-.2.5-.5.5s-.5-.2-.5-.5v-7c0-1.1.5-2.1 1.4-2.8l.8-.6c.2-.1.4-.1.6 0l.8.6c.9.7 1.4 1.7 1.4 2.8v7c0 .3-.2.5-.5.5z"/><path fill="#594454" d="M71 53c-.3 0-.5-.2-.5-.5v-7c0-.8-.4-1.5-1-2l-.5-.4-.5.4c-.6.5-1 1.2-1 2v7c0 .3-.2.5-.5.5s-.5-.2-.5-.5v-7c0-1.1.5-2.1 1.4-2.8l.8-.6c.2-.1.4-.1.6 0l.8.6c.9.7 1.4 1.7 1.4 2.8v7c0 .3-.2.5-.5.5zM81 63c-.3 0-.5-.2-.5-.5v-7c0-.8-.4-1.5-1-2l-.5-.4-.5.4c-.6.5-1 1.2-1 2v7c0 .3-.2.5-.5.5s-.5-.2-.5-.5v-7c0-1.1.5-2.1 1.4-2.8l.8-.6c.2-.1.4-.1.6 0l.8.6c.9.7 1.4 1.7 1.4 2.8v7c0 .3-.2.5-.5.5z"/><path fill="#594454" d="M81 70c-.3 0-.5-.2-.5-.5v-7c0-.8-.4-1.5-1-2l-.5-.4-.5.4c-.6.5-1 1.2-1 2v7c0 .3-.2.5-.5.5s-.5-.2-.5-.5v-7c0-1.1.5-2.1 1.4-2.8l.8-.6c.2-.1.4-.1.6 0l.8.6c.9.7 1.4 1.7 1.4 2.8v7c0 .3-.2.5-.5.5z"/><path fill="#594454" d="M81 77c-.3 0-.5-.2-.5-.5v-7c0-.8-.4-1.5-1-2l-.5-.4-.5.4c-.6.5-1 1.2-1 2v7c0 .3-.2.5-.5.5s-.5-.2-.5-.5v-7c0-1.1.5-2.1 1.4-2.8l.8-.6c.2-.1.4-.1.6 0l.8.6c.9.7 1.4 1.7 1.4 2.8v7c0 .3-.2.5-.5.5zM77 56.6c-.3 0-.5-.2-.5-.5v-5.4c0-.7-.4-1.4-1-1.8l-1.5-.8-1.5.8c-.6.4-1 1.1-1 1.8v5.4c0 .3-.2.5-.5.5s-.5-.2-.5-.5v-5.4c0-1.1.6-2.1 1.5-2.7l1.7-1c.2-.1.3-.1.5 0l1.7 1c1 .5 1.5 1.6 1.5 2.7v5.4c.1.3-.1.5-.4.5z"/><path fill="#594454" d="M77 60.6c-.3 0-.5-.2-.5-.5v-5.4c0-.7-.4-1.4-1-1.8l-1.5-.8-1.5.8c-.6.4-1 1.1-1 1.8v5.4c0 .3-.2.5-.5.5s-.5-.2-.5-.5v-5.4c0-1.1.6-2.1 1.5-2.7l1.7-1c.2-.1.3-.1.5 0l1.7 1c1 .5 1.5 1.6 1.5 2.7v5.4c.1.3-.1.5-.4.5zM74 48c-.3 0-.5-.2-.5-.5v-2c0-.3.2-.5.5-.5s.5.2.5.5v2c0 .3-.2.5-.5.5zM41 86h-2c-.3 0-.5-.2-.5-.5v-4c0-.3.2-.5.5-.5h2c.3 0 .5.2.5.5v4c0 .3-.2.5-.5.5zm-1.5-1h1v-3h-1v3z"/><path fill="#f17e5b" d="M29 81c-.3 0-.5-.2-.5-.5s-.2-.5-.5-.5c-.1 0-.2 0-.3.1-.1.1-.3.1-.5 0-.1 0-.2-.1-.2-.3-.1-.5-.5-.8-1-.8s-.9.3-1 .8c0 .2-.1.3-.3.4-.1.1-.3 0-.5 0 0-.2-.1-.2-.2-.2-.3 0-.5.2-.5.5s-.2.5-.5.5-.5-.2-.5-.5c0-.9.9-1.6 1.8-1.5.3-.6 1-1 1.7-1s1.4.4 1.7 1c.9-.2 1.8.6 1.8 1.5 0 .3-.2.5-.5.5z"/><path fill="#594454" d="M29 91h-6c-.3 0-.5-.2-.5-.5v-16c0-.3.2-.5.5-.5h6c.3 0 .5.2.5.5v16c0 .3-.2.5-.5.5zm-5.5-1h5V75h-5v15z"/><path fill="#594454" d="M23 91h-4c-.3 0-.5-.2-.5-.5v-16c0-.3.2-.5.5-.5h4c.3 0 .5.2.5.5v16c0 .3-.2.5-.5.5zm-3.5-1h3V75h-3v15zM27 86h-2c-.3 0-.5-.2-.5-.5v-4c0-.3.2-.5.5-.5h2c.3 0 .5.2.5.5v4c0 .3-.2.5-.5.5zm-1.5-1h1v-3h-1v3z"/><path fill="#594454" d="M29 80c-.3 0-.5-.2-.5-.5s-.2-.5-.5-.5c-.1 0-.2 0-.3.1-.1.1-.3.1-.5 0-.1 0-.2-.1-.2-.3-.1-.5-.5-.8-1-.8s-.9.3-1 .8c0 .2-.1.3-.3.4-.1.1-.3 0-.5 0 0-.2-.1-.2-.2-.2-.3 0-.5.2-.5.5s-.2.5-.5.5-.5-.2-.5-.5c0-.9.9-1.7 1.8-1.5.3-.6 1-1 1.7-1s1.4.4 1.7 1c.9-.2 1.8.6 1.8 1.5 0 .3-.2.5-.5.5zM57 91h-4c-.3 0-.5-.2-.5-.5v-16c0-.3.2-.5.5-.5h4c.3 0 .5.2.5.5v16c0 .3-.2.5-.5.5zm-3.5-1h3V75h-3v15z"/><path fill="#594454" d="M53 91h-6c-.3 0-.5-.2-.5-.5v-16c0-.3.2-.5.5-.5h6c.3 0 .5.2.5.5v16c0 .3-.2.5-.5.5zm-5.5-1h5V75h-5v15z"/><path fill="#594454" d="M51 86h-2c-.3 0-.5-.2-.5-.5v-4c0-.3.2-.5.5-.5h2c.3 0 .5.2.5.5v4c0 .3-.2.5-.5.5zm-1.5-1h1v-3h-1v3zM53 80c-.3 0-.5-.2-.5-.5s-.2-.5-.5-.5c-.1 0-.2 0-.3.1-.1.1-.3.1-.5 0-.1 0-.2-.1-.2-.3-.1-.5-.5-.8-1-.8s-.9.3-1 .8c0 .2-.1.3-.3.4-.2.1-.3 0-.5 0 0-.2-.1-.2-.2-.2-.3 0-.5.2-.5.5s-.2.5-.5.5-.5-.2-.5-.5c0-.9.9-1.7 1.8-1.5.3-.6 1-1 1.7-1s1.4.4 1.7 1c.9-.2 1.8.6 1.8 1.5 0 .3-.2.5-.5.5zM67 91h-4c-.3 0-.5-.2-.5-.5v-16c0-.3.2-.5.5-.5h4c.3 0 .5.2.5.5v16c0 .3-.2.5-.5.5zm-3.5-1h3V75h-3v15z"/><path fill="#594454" d="M63 91h-6c-.3 0-.5-.2-.5-.5v-16c0-.3.2-.5.5-.5h6c.3 0 .5.2.5.5v16c0 .3-.2.5-.5.5zm-5.5-1h5V75h-5v15zM71 91h-4c-.3 0-.5-.2-.5-.5v-16c0-.3.2-.5.5-.5h4c.3 0 .5.2.5.5v16c0 .3-.2.5-.5.5zm-3.5-1h3V75h-3v15zM81 91h-4c-.3 0-.5-.2-.5-.5v-16c0-.3.2-.5.5-.5h4c.3 0 .5.2.5.5v16c0 .3-.2.5-.5.5zm-3.5-1h3V75h-3v15z"/><path fill="#f17e5b" d="M21 59c-.3 0-.5-.2-.5-.5v-2c0-.3.2-.5.5-.5s.5.2.5.5v2c0 .3-.2.5-.5.5zM21 66c-.3 0-.5-.2-.5-.5v-2c0-.3.2-.5.5-.5s.5.2.5.5v2c0 .3-.2.5-.5.5zM21 74c-.3 0-.5-.2-.5-.5v-3c0-.3.2-.5.5-.5s.5.2.5.5v3c0 .3-.2.5-.5.5zM31 88c-.3 0-.5-.2-.5-.5v-8c0-.3.2-.5.5-.5s.5.2.5.5v8c0 .3-.2.5-.5.5zM35 88c-.3 0-.5-.2-.5-.5v-8c0-.3.2-.5.5-.5s.5.2.5.5v8c0 .3-.2.5-.5.5zM45 88c-.3 0-.5-.2-.5-.5v-8c0-.3.2-.5.5-.5s.5.2.5.5v8c0 .3-.2.5-.5.5zM55 74c-.3 0-.5-.2-.5-.5v-5c0-.3.2-.5.5-.5s.5.2.5.5v5c0 .3-.2.5-.5.5zM45 74c-.3 0-.5-.2-.5-.5v-5c0-.3.2-.5.5-.5s.5.2.5.5v5c0 .3-.2.5-.5.5zM35 74c-.3 0-.5-.2-.5-.5v-5c0-.3.2-.5.5-.5s.5.2.5.5v5c0 .3-.2.5-.5.5zM31 74c-.3 0-.5-.2-.5-.5v-5c0-.3.2-.5.5-.5s.5.2.5.5v5c0 .3-.2.5-.5.5zM79 59c-.3 0-.5-.2-.5-.5v-2c0-.3.2-.5.5-.5s.5.2.5.5v2c0 .3-.2.5-.5.5zM79 66c-.3 0-.5-.2-.5-.5v-2c0-.3.2-.5.5-.5s.5.2.5.5v2c0 .3-.2.5-.5.5zM79 74c-.3 0-.5-.2-.5-.5v-3c0-.3.2-.5.5-.5s.5.2.5.5v3c0 .3-.2.5-.5.5zM65 56c-.3 0-.5-.2-.5-.5v-3c0-.3.2-.5.5-.5s.5.2.5.5v3c0 .3-.2.5-.5.5zM65 64c-.3 0-.5-.2-.5-.5v-3c0-.3.2-.5.5-.5s.5.2.5.5v3c0 .3-.2.5-.5.5zM65 74c-.3 0-.5-.2-.5-.5v-5c0-.3.2-.5.5-.5s.5.2.5.5v5c0 .3-.2.5-.5.5zM69 57c-.3 0-.5-.2-.5-.5v-3c0-.3.2-.5.5-.5s.5.2.5.5v3c0 .3-.2.5-.5.5zM65 48c-.3 0-.5-.2-.5-.5v-4c0-.3.2-.5.5-.5s.5.2.5.5v4c0 .3-.2.5-.5.5zM69 49c-.3 0-.5-.2-.5-.5v-2c0-.3.2-.5.5-.5s.5.2.5.5v2c0 .3-.2.5-.5.5zM69 64c-.3 0-.5-.2-.5-.5v-2c0-.3.2-.5.5-.5s.5.2.5.5v2c0 .3-.2.5-.5.5zM69 74c-.3 0-.5-.2-.5-.5v-5c0-.3.2-.5.5-.5s.5.2.5.5v5c0 .3-.2.5-.5.5zM21 88c-.3 0-.5-.2-.5-.5v-8c0-.3.2-.5.5-.5s.5.2.5.5v8c0 .3-.2.5-.5.5zM55 88c-.3 0-.5-.2-.5-.5v-8c0-.3.2-.5.5-.5s.5.2.5.5v8c0 .3-.2.5-.5.5zM65 88c-.3 0-.5-.2-.5-.5v-8c0-.3.2-.5.5-.5s.5.2.5.5v8c0 .3-.2.5-.5.5zM69 88c-.3 0-.5-.2-.5-.5v-8c0-.3.2-.5.5-.5s.5.2.5.5v8c0 .3-.2.5-.5.5zM79 88c-.3 0-.5-.2-.5-.5v-8c0-.3.2-.5.5-.5s.5.2.5.5v8c0 .3-.2.5-.5.5z"/><path fill="#594454" d="M61 86h-2c-.3 0-.5-.2-.5-.5v-4c0-.3.2-.5.5-.5h2c.3 0 .5.2.5.5v4c0 .3-.2.5-.5.5zm-1.5-1h1v-3h-1v3zM63 80c-.3 0-.5-.2-.5-.5s-.2-.5-.5-.5c-.1 0-.2 0-.3.1-.1.1-.3.1-.5 0-.1 0-.2-.1-.2-.3-.1-.5-.5-.8-1-.8s-.9.3-1 .8c0 .2-.1.3-.3.4-.2.1-.3 0-.5 0 0-.2-.1-.2-.2-.2-.3 0-.5.2-.5.5s-.2.5-.5.5-.5-.2-.5-.5c0-.9.9-1.7 1.8-1.5.3-.6 1-1 1.7-1s1.4.4 1.7 1c.9-.2 1.8.6 1.8 1.5 0 .3-.2.5-.5.5zM77 91h-6c-.3 0-.5-.2-.5-.5v-16c0-.3.2-.5.5-.5h6c.3 0 .5.2.5.5v16c0 .3-.2.5-.5.5zm-5.5-1h5V75h-5v15z"/><path fill="#594454" d="M75 86h-2c-.3 0-.5-.2-.5-.5v-4c0-.3.2-.5.5-.5h2c.3 0 .5.2.5.5v4c0 .3-.2.5-.5.5zm-1.5-1h1v-3h-1v3zM77 80c-.3 0-.5-.2-.5-.5s-.2-.5-.5-.5c-.1 0-.2 0-.3.1-.1.1-.3.1-.5 0-.1 0-.2-.1-.2-.3-.1-.5-.5-.8-1-.8s-.9.3-1 .8c0 .2-.1.3-.3.4-.1.1-.3 0-.5 0 0-.2-.1-.2-.2-.2-.3 0-.5.2-.5.5s-.2.5-.5.5-.5-.2-.5-.5c0-.9.9-1.7 1.8-1.5.3-.6 1-1 1.7-1s1.4.4 1.7 1c.9-.2 1.8.6 1.8 1.5 0 .3-.2.5-.5.5zM43 80c-.3 0-.5-.2-.5-.5s-.2-.5-.5-.5c-.1 0-.2 0-.3.1-.1.1-.3.1-.5 0-.1 0-.2-.1-.2-.3-.1-.5-.5-.8-1-.8s-.9.3-1 .8c0 .2-.1.3-.3.4-.2.1-.3 0-.5 0 0-.2-.1-.2-.2-.2-.3 0-.5.2-.5.5s-.2.5-.5.5-.5-.2-.5-.5c0-.9.9-1.7 1.8-1.5.3-.6 1-1 1.7-1s1.4.4 1.7 1c.9-.2 1.8.6 1.8 1.5 0 .3-.2.5-.5.5zM27 71h-2c-.3 0-.5-.2-.5-.5v-1.9c0-.5.3-.9.7-1.2l.6-.3c.2-.1.3-.1.5 0l.6.3c.4.2.7.7.7 1.2v1.9c-.1.3-.3.5-.6.5zm-1.5-1h1v-1.4c0-.1-.1-.2-.2-.3l-.3-.2-.3.2c-.1.1-.2.2-.2.3V70zM27 64h-2c-.3 0-.5-.2-.5-.5v-1.9c0-.5.3-.9.7-1.2l.6-.3c.2-.1.3-.1.5 0l.6.3c.4.2.7.7.7 1.2v1.9c-.1.3-.3.5-.6.5zm-1.5-1h1v-1.4c0-.1-.1-.2-.2-.3l-.3-.2-.3.2c-.1.1-.2.2-.2.3V63zM51 60h-2c-.3 0-.5-.2-.5-.5v-1.9c0-.5.3-.9.7-1.2l.6-.3c.2-.1.3-.1.5 0l.6.3c.4.2.7.7.7 1.2v1.9c-.1.3-.3.5-.6.5zm-1.5-1h1v-1.4c0-.1-.1-.2-.2-.3l-.3-.2-.3.2c-.1.1-.2.2-.2.3V59zM61 61h-2c-.3 0-.5-.2-.5-.5v-1.9c0-.5.3-.9.7-1.2l.6-.3c.2-.1.3-.1.5 0l.6.3c.4.2.7.7.7 1.2v1.9c-.1.3-.3.5-.6.5zm-1.5-1h1v-1.4c0-.1-.1-.2-.2-.3l-.3-.2-.3.2c-.1.1-.2.2-.2.3V60zM41 61h-2c-.3 0-.5-.2-.5-.5v-1.9c0-.5.3-.9.7-1.2l.6-.3c.2-.1.3-.1.5 0l.6.3c.4.2.7.7.7 1.2v1.9c-.1.3-.3.5-.6.5zm-1.5-1h1v-1.4c0-.1-.1-.2-.2-.3l-.3-.2-.3.2c-.1.1-.2.2-.2.3V60zM75 64h-2c-.3 0-.5-.2-.5-.5v-1.9c0-.5.3-.9.7-1.2l.6-.3c.2-.1.3-.1.5 0l.6.3c.4.2.7.7.7 1.2v1.9c-.1.3-.3.5-.6.5zm-1.5-1h1v-1.4c0-.1-.1-.2-.2-.3l-.3-.2-.3.2c-.1.1-.2.2-.2.3V63zM55 53c-.3 0-.5-.2-.5-.5v-4c0-.3.2-.5.5-.5s.5.2.5.5v4c0 .3-.2.5-.5.5zM55 63c-.3 0-.5-.2-.5-.5v-5c0-.3.2-.5.5-.5s.5.2.5.5v5c0 .3-.2.5-.5.5zM45 53c-.3 0-.5-.2-.5-.5v-4c0-.3.2-.5.5-.5s.5.2.5.5v4c0 .3-.2.5-.5.5zM55 44c-.3 0-.5-.2-.5-.5v-5c0-.3.2-.5.5-.5s.5.2.5.5v5c0 .3-.2.5-.5.5zM45 44c-.3 0-.5-.2-.5-.5v-5c0-.3.2-.5.5-.5s.5.2.5.5v5c0 .3-.2.5-.5.5zM45 63c-.3 0-.5-.2-.5-.5v-5c0-.3.2-.5.5-.5s.5.2.5.5v5c0 .3-.2.5-.5.5zM35 55c-.3 0-.5-.2-.5-.5v-3c0-.3.2-.5.5-.5s.5.2.5.5v3c0 .3-.2.5-.5.5zM35 63c-.3 0-.5-.2-.5-.5v-3c0-.3.2-.5.5-.5s.5.2.5.5v3c0 .3-.2.5-.5.5zM31 56c-.3 0-.5-.2-.5-.5v-3c0-.3.2-.5.5-.5s.5.2.5.5v3c0 .3-.2.5-.5.5zM35 47c-.3 0-.5-.2-.5-.5v-4c0-.3.2-.5.5-.5s.5.2.5.5v4c0 .3-.2.5-.5.5zM31 48c-.3 0-.5-.2-.5-.5v-2c0-.3.2-.5.5-.5s.5.2.5.5v2c0 .3-.2.5-.5.5zM31 63c-.3 0-.5-.2-.5-.5v-2c0-.3.2-.5.5-.5s.5.2.5.5v2c0 .3-.2.5-.5.5zM21 58c-.3 0-.5-.2-.5-.5v-2c0-.3.2-.5.5-.5s.5.2.5.5v2c0 .3-.2.5-.5.5zM21 65c-.3 0-.5-.2-.5-.5v-2c0-.3.2-.5.5-.5s.5.2.5.5v2c0 .3-.2.5-.5.5zM21 73c-.3 0-.5-.2-.5-.5v-3c0-.3.2-.5.5-.5s.5.2.5.5v3c0 .3-.2.5-.5.5zM31 87c-.3 0-.5-.2-.5-.5v-8c0-.3.2-.5.5-.5s.5.2.5.5v8c0 .3-.2.5-.5.5zM35 87c-.3 0-.5-.2-.5-.5v-8c0-.3.2-.5.5-.5s.5.2.5.5v8c0 .3-.2.5-.5.5zM45 87c-.3 0-.5-.2-.5-.5v-8c0-.3.2-.5.5-.5s.5.2.5.5v8c0 .3-.2.5-.5.5zM79 65c-.3 0-.5-.2-.5-.5v-2c0-.3.2-.5.5-.5s.5.2.5.5v2c0 .3-.2.5-.5.5zM79 73c-.3 0-.5-.2-.5-.5v-3c0-.3.2-.5.5-.5s.5.2.5.5v3c0 .3-.2.5-.5.5zM21 87c-.3 0-.5-.2-.5-.5v-8c0-.3.2-.5.5-.5s.5.2.5.5v8c0 .3-.2.5-.5.5zM55 87c-.3 0-.5-.2-.5-.5v-8c0-.3.2-.5.5-.5s.5.2.5.5v8c0 .3-.2.5-.5.5zM65 87c-.3 0-.5-.2-.5-.5v-8c0-.3.2-.5.5-.5s.5.2.5.5v8c0 .3-.2.5-.5.5zM69 87c-.3 0-.5-.2-.5-.5v-8c0-.3.2-.5.5-.5s.5.2.5.5v8c0 .3-.2.5-.5.5zM79 87c-.3 0-.5-.2-.5-.5v-8c0-.3.2-.5.5-.5s.5.2.5.5v8c0 .3-.2.5-.5.5zM55 73c-.3 0-.5-.2-.5-.5v-5c0-.3.2-.5.5-.5s.5.2.5.5v5c0 .3-.2.5-.5.5zM45 73c-.3 0-.5-.2-.5-.5v-5c0-.3.2-.5.5-.5s.5.2.5.5v5c0 .3-.2.5-.5.5zM35 73c-.3 0-.5-.2-.5-.5v-5c0-.3.2-.5.5-.5s.5.2.5.5v5c0 .3-.2.5-.5.5zM31 73c-.3 0-.5-.2-.5-.5v-5c0-.3.2-.5.5-.5s.5.2.5.5v5c0 .3-.2.5-.5.5zM79 58c-.3 0-.5-.2-.5-.5v-2c0-.3.2-.5.5-.5s.5.2.5.5v2c0 .3-.2.5-.5.5zM65 55c-.3 0-.5-.2-.5-.5v-3c0-.3.2-.5.5-.5s.5.2.5.5v3c0 .3-.2.5-.5.5zM65 63c-.3 0-.5-.2-.5-.5v-3c0-.3.2-.5.5-.5s.5.2.5.5v3c0 .3-.2.5-.5.5zM65 73c-.3 0-.5-.2-.5-.5v-5c0-.3.2-.5.5-.5s.5.2.5.5v5c0 .3-.2.5-.5.5zM69 56c-.3 0-.5-.2-.5-.5v-3c0-.3.2-.5.5-.5s.5.2.5.5v3c0 .3-.2.5-.5.5zM65 47c-.3 0-.5-.2-.5-.5v-4c0-.3.2-.5.5-.5s.5.2.5.5v4c0 .3-.2.5-.5.5zM69 48c-.3 0-.5-.2-.5-.5v-2c0-.3.2-.5.5-.5s.5.2.5.5v2c0 .3-.2.5-.5.5zM69 63c-.3 0-.5-.2-.5-.5v-2c0-.3.2-.5.5-.5s.5.2.5.5v2c0 .3-.2.5-.5.5zM69 73c-.3 0-.5-.2-.5-.5v-5c0-.3.2-.5.5-.5s.5.2.5.5v5c0 .3-.2.5-.5.5z"/></svg>