<svg xmlns="http://www.w3.org/2000/svg" width="100" height="100"><path fill="#594454" d="M20.5 65.1c-.3 0-.5-.2-.5-.5V63c0-.3.2-.5.5-.5s.5.2.5.5v1.6c0 .2-.3.5-.5.5z"/><path fill="#f1f1f2" d="M57.5 56.5h-15c0 1.7-1.3 3-3 3v7h21v-7c-1.7 0-3-1.3-3-3z"/><path fill="#d9d4d8" d="M42.5 58.5h15v-2h-15v2z"/><path fill="#d9d4d8" d="M45 56.5h-2.5c0 1.7-1.3 3-3 3v7H42v-7c1.6 0 3-1.3 3-3zm10 0h2.5c0 1.7 1.3 3 3 3v7H58v-7c-1.7 0-3-1.3-3-3z"/><path fill="#f1f1f2" d="M54.5 63.5h3v3h-3zM79.406 90.55h-7v-26h7z"/><path fill="#fff" d="M77.5 64.5h2v26h-2z"/><path fill="#f1f1f2" d="M20.5 64.5h7v26h-7z"/><path fill="#fff" d="M25.5 64.5h2v26h-2z"/><path fill="#f1f1f2" d="M72.406 90.55h-9v-17h9z"/><path fill="#d9d4d8" d="M63.5 73.5h2v17h-2zM70.5 73.5h2v17h-2z"/><path fill="#f1f1f2" d="M45.5 68.5h9v22h-9z"/><path fill="#d9d4d8" d="M45.5 68.5h9v2h-9zM45.5 71.5h9v2h-9z"/><path fill="#d9d4d8" d="M45.5 68.5h2v22h-2zM52.5 68.5h2v22h-2z"/><path fill="#8e7f8b" d="M45.5 90.5V78c0-2.5 2-4.5 4.5-4.5s4.5 2 4.5 4.5v12.5"/><path fill="#f1f1f2" d="M47.9 44.5v-4c0-1.1.9-2 2-2s2 .9 2 2v4M40.5 66.5h19v2h-19z"/><path fill="#fff" d="M57.5 66.5h2v2h-2zM40.5 66.5h2v2h-2z"/><path fill="#f1f1f2" d="M40.5 68.5v-1h-4v4h6v-3z"/><path fill="#d9d4d8" d="M40.5 68.5v-1h-4v2h4v1h2v-2z"/><path fill="#d9d4d8" d="M38.5 67.5h2v1h-2zM40.5 68.5h2v3h-2z"/><path fill="#f1f1f2" d="M59.5 68.5v-1h4v4h-6v-3z"/><path fill="#d9d4d8" d="M59.5 67.5v1h-2v2h2v-1h4v-2z"/><path fill="#d9d4d8" d="M57.5 68.5h2v3h-2zM59.5 67.5h2v1h-2z"/><path fill="#f1f1f2" d="M27.5 69.5h9v4h-9zM63.5 69.5h9v4h-9z"/><path fill="#d9d4d8" d="M34.5 69.5h2v4h-2zM70.5 69.5h2v4h-2zM27.5 69.5h2v4h-2zM63.5 69.5h2v4h-2z"/><path fill="#f1f1f2" d="M42.5 54v-2c0-4.1 3.4-7.5 7.5-7.5s7.5 3.4 7.5 7.5v2"/><path fill="#d9d4d8" d="M51 44.6c-.3 0-.7-.1-1-.1-4.1 0-7.5 3.4-7.5 7.5v2h2v-2c0-3.8 2.8-6.9 6.5-7.4z"/><path fill="#fff" d="M50 44.5c-.3 0-.7 0-1 .1 3.7.5 6.5 3.6 6.5 7.4v2h2v-2c0-4.1-3.4-7.5-7.5-7.5z"/><path fill="#f1f1f2" d="M36.4 67.6v-6c0-1.1.9-2 2-2s2 .9 2 2v6h-4zM42.5 68.5h3v22h-3zM36.5 71.5h3v19h-3zM39.5 71.5h3v19h-3z"/><path fill="#d9d4d8" d="M20.5 64.5h7V66h-7zM20.5 67.5h7V69h-7zM20.5 71.5h7V73h-7zM20.5 80.5h7V82h-7zM72.5 64.5h7V66h-7zM72.5 67.5h7V69h-7zM72.5 71.5h7V73h-7zM72.5 80.5h7V82h-7z"/><path fill="#f1f1f2" d="M27.5 73.5h9v17h-9z"/><path fill="#d9d4d8" d="M27.5 73.5h9v2h-9zM63.5 73.5h9v2h-9z"/><path fill="#d9d4d8" d="M27.5 73.5h2v17h-2zM34.5 73.5h2v17h-2z"/><path fill="#f1f1f2" d="M63.406 90.55h-3v-19h3zM40.5 54.5h19v2h-19z"/><path fill="#d9d4d8" d="M40.5 54.5h2v2h-2z"/><path fill="#fff" d="M57.5 54.5h2v2h-2z"/><path fill="#f1f1f2" d="M42.5 63.5h3v3h-3z"/><path fill="#fff" d="M44 63.5h1.5v3H44zM56 63.5h1.5v3H56z"/><path fill="#f1f1f2" d="M54.5 68.5h3v22h-3z"/><path fill="#fff" d="M44 68.5h1.5v22H44zM38 71.5h1.5v19H38zM62 71.5h1.5v19H62zM56 68.5h1.5v22H56z"/><path fill="#f1f1f2" d="M57.5 71.5h3v19h-3zM22.4 64.5V60c0-.8.7-1.5 1.5-1.5s1.5.7 1.5 1.5v4.5h-3zm37 3v-6c0-1.1.9-2 2-2s2 .9 2 2v6h-4z"/><path fill="#fff" d="M38.4 59.5c-.3 0-.5.1-.8.1.7.3 1.3 1 1.3 1.9v6h1.5v-6c.1-1.1-.8-2-2-2zm23 0c-.3 0-.5.1-.8.1.7.3 1.3 1 1.3 1.9v6h1.5v-6c.1-1.1-.8-2-2-2z"/><path fill="#f1f1f2" d="M77.5 64.5V60c0-.8-.7-1.5-1.5-1.5s-1.5.7-1.5 1.5v4.5h3z"/><path fill="#726571" d="M51 73.6c-.3-.1-.7-.1-1-.1-2.5 0-4.5 2-4.5 4.5v12.5h2V78c0-2.1 1.4-3.9 3.5-4.4z"/><path fill="#726571" d="M49 73.6c.3-.1.7-.1 1-.1 2.5 0 4.5 2 4.5 4.5v12.5h-2V78c0-2.1-1.5-3.9-3.5-4.4z"/><path fill="#8e7f8b" d="M39.5 85.5V83c0-.8.7-1.5 1.5-1.5s1.5.7 1.5 1.5v2.5h-3zm0-7V76c0-.8.7-1.5 1.5-1.5s1.5.7 1.5 1.5v2.5h-3zm8.9-17V60c0-.8.7-1.5 1.5-1.5s1.5.7 1.5 1.5v1.5M22.5 73.5h3v4h-3zM60.5 85.5V83c0-.8-.7-1.5-1.5-1.5s-1.5.7-1.5 1.5v2.5h3zm0-7V76c0-.8-.7-1.5-1.5-1.5s-1.5.7-1.5 1.5v2.5h3zM30.5 82.5h3v4h-3zM30.5 75.5h3v4h-3zM22.5 82.5h3v4h-3zM74.5 73.5h3v4h-3zM66.5 82.5h3v4h-3zM66.5 75.5h3v4h-3zM74.5 82.5h3v4h-3z"/><path fill="#594454" d="M80.5 91h-61c-.3 0-.5-.2-.5-.5s.2-.5.5-.5h61c.3 0 .5.2.5.5s-.2.5-.5.5zm-26-3.5c-.3 0-.5-.2-.5-.5v-9c0-2.2-1.8-4-4-4s-4 1.8-4 4v9c0 .3-.2.5-.5.5s-.5-.2-.5-.5v-9c0-2.8 2.2-5 5-5s5 2.2 5 5v9c0 .3-.3.5-.5.5zm3-33c-.3 0-.5-.2-.5-.5v-2c0-3.9-3.1-7-7-7s-7 3.1-7 7v2c0 .3-.2.5-.5.5s-.5-.2-.5-.5v-2c0-4.4 3.6-8 8-8s8 3.6 8 8v2c0 .3-.3.5-.5.5zM42.5 86h-3c-.3 0-.5-.2-.5-.5V83c0-1.1.9-2 2-2s2 .9 2 2v2.5c0 .3-.3.5-.5.5zM40 85h2v-2c0-.6-.4-1-1-1s-1 .4-1 1v2zm2.5-6h-3c-.3 0-.5-.2-.5-.5V76c0-1.1.9-2 2-2s2 .9 2 2v2.5c0 .3-.3.5-.5.5zM40 78h2v-2c0-.6-.4-1-1-1s-1 .4-1 1v2zm.5-9.9h-4c-.3 0-.5-.2-.5-.5v-6c0-1.4 1.1-2.5 2.5-2.5s2.5 1.1 2.5 2.5v6c0 .2-.3.5-.5.5zm-3.6-1h3v-5.5c0-.8-.7-1.5-1.5-1.5s-1.5.7-1.5 1.5v5.5zM51.4 62c-.3 0-.5-.2-.5-.5V60c0-.6-.4-1-1-1s-1 .4-1 1v1.5c0 .3-.2.5-.5.5s-.5-.2-.5-.5V60c0-1.1.9-2 2-2s2 .9 2 2v1.5c0 .3-.2.5-.5.5z"/><path fill="#594454" d="M45.5 91h-3c-.3 0-.5-.2-.5-.5v-22c0-.3.2-.5.5-.5h3c.3 0 .5.2.5.5v22c0 .3-.3.5-.5.5zM43 90h2V69h-2v21zm-3.5 1h-3c-.3 0-.5-.2-.5-.5v-19c0-.3.2-.5.5-.5h3c.3 0 .5.2.5.5v19c0 .3-.3.5-.5.5zM37 90h2V72h-2v18zM25.5 78h-3c-.3 0-.5-.2-.5-.5v-4c0-.3.2-.5.5-.5h3c.3 0 .5.2.5.5v4c0 .3-.3.5-.5.5zM23 77h2v-3h-2v3z"/><path fill="#594454" d="M27.5 91h-7c-.3 0-.5-.2-.5-.5v-26c0-.3.2-.5.5-.5h7c.3 0 .5.2.5.5v26c0 .3-.3.5-.5.5zM21 90h6V65h-6v25z"/><path fill="#594454" d="M36.5 91h-9c-.3 0-.5-.2-.5-.5v-17c0-.3.2-.5.5-.5h9c.3 0 .5.2.5.5v17c0 .3-.3.5-.5.5zM28 90h8V74h-8v16zm32.5-4h-3c-.3 0-.5-.2-.5-.5V83c0-1.1.9-2 2-2s2 .9 2 2v2.5c0 .3-.3.5-.5.5zM58 85h2v-2c0-.6-.4-1-1-1s-1 .4-1 1v2zm2.5-6h-3c-.3 0-.5-.2-.5-.5V76c0-1.1.9-2 2-2s2 .9 2 2v2.5c0 .3-.3.5-.5.5zM58 78h2v-2c0-.6-.4-1-1-1s-1 .4-1 1v2z"/><path fill="#594454" d="M63.5 91h-3c-.3 0-.5-.2-.5-.5v-19c0-.3.2-.5.5-.5h3c.3 0 .5.2.5.5v19c0 .3-.3.5-.5.5zM61 90h2V72h-2v18zm-1.5-21h-19c-.3 0-.5-.2-.5-.5v-2c0-.3.2-.5.5-.5h19c.3 0 .5.2.5.5v2c0 .3-.3.5-.5.5zM41 68h18v-1H41v1zm18.5-11h-19c-.3 0-.5-.2-.5-.5v-2c0-.3.2-.5.5-.5h19c.3 0 .5.2.5.5v2c0 .3-.3.5-.5.5zM41 56h18v-1H41v1z"/><path fill="#594454" d="M45.5 67h-3c-.3 0-.5-.2-.5-.5v-3c0-.3.2-.5.5-.5h3c.3 0 .5.2.5.5v3c0 .3-.3.5-.5.5zM43 66h2v-2h-2v2zm9.5-2h-5c-.3 0-.5-.2-.5-.5v-2c0-.3.2-.5.5-.5h5c.3 0 .5.2.5.5v2c0 .3-.3.5-.5.5zM48 63h4v-1h-4v1zm9.5 4h-3c-.3 0-.5-.2-.5-.5v-3c0-.3.2-.5.5-.5h3c.3 0 .5.2.5.5v3c0 .3-.3.5-.5.5zM55 66h2v-2h-2v2zm2.5 25h-3c-.3 0-.5-.2-.5-.5v-22c0-.3.2-.5.5-.5h3c.3 0 .5.2.5.5v22c0 .3-.3.5-.5.5zM55 90h2V69h-2v21z"/><path fill="#594454" d="M57.5 64h-15c-.3 0-.5-.2-.5-.5s.2-.5.5-.5h15c.3 0 .5.2.5.5s-.3.5-.5.5zm-1-2h-13c-.3 0-.5-.2-.5-.5s.2-.5.5-.5h13c.3 0 .5.2.5.5s-.3.5-.5.5zm-16 6h-5c-.3 0-.5-.2-.5-.5s.2-.5.5-.5h5c.3 0 .5.2.5.5s-.3.5-.5.5zm12 4h-17c-.3 0-.5-.2-.5-.5s.2-.5.5-.5h17c.3 0 .5.2.5.5s-.3.5-.5.5z"/><path fill="#594454" d="M64.5 72h-17c-.3 0-.5-.2-.5-.5s.2-.5.5-.5h17c.3 0 .5.2.5.5s-.3.5-.5.5zm17 19h-63c-.3 0-.5-.2-.5-.5s.2-.5.5-.5h63c.3 0 .5.2.5.5s-.3.5-.5.5zm-39-19h-6c-.3 0-.5-.2-.5-.5v-4c0-.3.2-.5.5-.5h4c.3 0 .5.2.5.5v.5h1.5c.3 0 .5.2.5.5v3c0 .3-.3.5-.5.5zM37 71h5v-2h-1.5c-.3 0-.5-.2-.5-.5V68h-3v3zm27.5-3h-5c-.3 0-.5-.2-.5-.5s.2-.5.5-.5h5c.3 0 .5.2.5.5s-.3.5-.5.5z"/><path fill="#594454" d="M63.5 72h-6c-.3 0-.5-.2-.5-.5v-3c0-.3.2-.5.5-.5H59v-.5c0-.3.2-.5.5-.5h4c.3 0 .5.2.5.5v4c0 .3-.3.5-.5.5zM58 71h5v-3h-3v.5c0 .3-.2.5-.5.5H58v2zm-19.5-3.5c-.3 0-.5-.2-.5-.5v-2.4c0-.3.2-.5.5-.5s.5.2.5.5V67c0 .2-.3.5-.5.5zm0-7.9c-.3 0-.5-.2-.5-.5v-1.6c0-.3.2-.5.5-.5s.5.2.5.5v1.6c0 .3-.3.5-.5.5zm2.9 2.4h-6c-.3 0-.5-.2-.5-.5s.2-.5.5-.5h6c.3 0 .5.2.5.5s-.2.5-.5.5zm-16 3h-3c-.3 0-.5-.2-.5-.5V60c0-1.1.9-2 2-2s2 .9 2 2v4.5c0 .3-.2.5-.5.5zm-2.5-1h2v-4c0-.6-.4-1-1-1s-1 .4-1 1v4z"/><path fill="#594454" d="M24 58.6c-.3 0-.5-.2-.5-.5v-1.6c0-.3.2-.5.5-.5s.5.2.5.5v1.6c0 .3-.3.5-.5.5zm3.5 7c-.3 0-.5-.2-.5-.5v-1.6c0-.3.2-.5.5-.5s.5.2.5.5v1.6c0 .3-.3.5-.5.5zm-1-4.6h-5c-.3 0-.5-.2-.5-.5s.2-.5.5-.5h5c.3 0 .5.2.5.5s-.3.5-.5.5zm2 7h-9c-.3 0-.5-.2-.5-.5s.2-.5.5-.5h9c.3 0 .5.2.5.5s-.3.5-.5.5zm0 4h-9c-.3 0-.5-.2-.5-.5s.2-.5.5-.5h9c.3 0 .5.2.5.5s-.3.5-.5.5zm-3 4h-3c-.3 0-.5-.2-.5-.5s.2-.5.5-.5h3c.3 0 .5.2.5.5s-.3.5-.5.5zm8 11h-3c-.3 0-.5-.2-.5-.5v-4c0-.3.2-.5.5-.5h3c.3 0 .5.2.5.5v4c0 .3-.3.5-.5.5zM31 86h2v-3h-2v3z"/><path fill="#594454" d="M33 85h-2.5c-.3 0-.5-.2-.5-.5s.2-.5.5-.5H33c.3 0 .5.2.5.5s-.3.5-.5.5zm.5-5h-3c-.3 0-.5-.2-.5-.5v-4c0-.3.2-.5.5-.5h3c.3 0 .5.2.5.5v4c0 .3-.3.5-.5.5zM31 79h2v-3h-2v3z"/><path fill="#594454" d="M33 78h-2.5c-.3 0-.5-.2-.5-.5s.2-.5.5-.5H33c.3 0 .5.2.5.5s-.3.5-.5.5zm-7.5 9h-3c-.3 0-.5-.2-.5-.5v-4c0-.3.2-.5.5-.5h3c.3 0 .5.2.5.5v4c0 .3-.3.5-.5.5zM23 86h2v-3h-2v3zm13.5-12h-9c-.3 0-.5-.2-.5-.5v-4c0-.3.2-.5.5-.5h9c.3 0 .5.2.5.5v4c0 .3-.3.5-.5.5zM28 73h8v-3h-8v3zm.5 8h-9c-.3 0-.5-.2-.5-.5s.2-.5.5-.5h9c.3 0 .5.2.5.5s-.3.5-.5.5zm29.9-29h-17c-.3 0-.5-.2-.5-.5s.2-.5.5-.5h17c.3 0 .5.2.5.5s-.2.5-.5.5zM52 45c-.3 0-.5-.2-.5-.5v-4c0-.8-.7-1.5-1.5-1.5s-1.5.7-1.5 1.5v4c0 .3-.2.5-.5.5s-.5-.2-.5-.5v-4c0-1.4 1.1-2.5 2.5-2.5s2.5 1.1 2.5 2.5v4c0 .3-.3.5-.5.5z"/><path fill="#594454" d="M50 44.5c-.3 0-.5-.2-.5-.5v-1.4c0-.3.2-.5.5-.5s.5.2.5.5V44c0 .2-.3.5-.5.5zm-5.5 10c-.3 0-.5-.2-.5-.5v-2c0-.3.2-.5.5-.5s.5.2.5.5v2c0 .3-.3.5-.5.5zm3 0c-.3 0-.5-.2-.5-.5v-2c0-.3.2-.5.5-.5s.5.2.5.5v2c0 .3-.3.5-.5.5zm-3 7c-.3 0-.5-.2-.5-.5v-4c0-.3.2-.5.5-.5s.5.2.5.5v4c0 .3-.3.5-.5.5zm2 0c-.3 0-.5-.2-.5-.5v-4c0-.3.2-.5.5-.5s.5.2.5.5v4c0 .3-.3.5-.5.5zm7 0c-.3 0-.5-.2-.5-.5v-4c0-.3.2-.5.5-.5s.5.2.5.5v4c0 .3-.3.5-.5.5zm2 0c-.3 0-.5-.2-.5-.5v-4c0-.3.2-.5.5-.5s.5.2.5.5v4c0 .3-.3.5-.5.5zm-3-7c-.3 0-.5-.2-.5-.5v-2c0-.3.2-.5.5-.5s.5.2.5.5v2c0 .3-.3.5-.5.5zm3 0c-.3 0-.5-.2-.5-.5v-2c0-.3.2-.5.5-.5s.5.2.5.5v2c0 .3-.3.5-.5.5zM50 38.6c-.3 0-.5-.2-.5-.5v-3.6c0-.3.2-.5.5-.5s.5.2.5.5v3.6c0 .3-.3.5-.5.5zm2.9 2.4h-6c-.3 0-.5-.2-.5-.5s.3-.5.6-.5h6c.3 0 .5.2.5.5s-.3.5-.6.5zm10.6 27h-4c-.3 0-.5-.2-.5-.5v-6c0-1.4 1.1-2.5 2.5-2.5s2.5 1.1 2.5 2.5v6c0 .3-.3.5-.5.5zm-3.6-1h3v-5.5c0-.8-.7-1.5-1.5-1.5s-1.5.7-1.5 1.5V67z"/><path fill="#594454" d="M61.5 67.5c-.3 0-.5-.2-.5-.5v-2.4c0-.3.2-.5.5-.5s.5.2.5.5V67c0 .2-.3.5-.5.5zm0-7.9c-.3 0-.5-.2-.5-.5v-1.6c0-.3.2-.5.5-.5s.5.2.5.5v1.6c0 .3-.3.5-.5.5zm2.9 2.4h-6c-.3 0-.5-.2-.5-.5s.2-.5.5-.5h6c.3 0 .5.2.5.5s-.2.5-.5.5zm-14.5-8.5c-.3 0-.5-.2-.5-.5s.2-.5.5-.5.5.2.5.5-.2.5-.5.5zM39.5 60c-.3 0-.5-.2-.5-.5s.2-.5.5-.5c1.4 0 2.5-1.1 2.5-2.5 0-.3.2-.5.5-.5s.5.2.5.5c0 2-1.6 3.5-3.5 3.5z"/><path fill="#594454" d="M39.5 60H39c-.3 0-.5-.2-.5-.5s.2-.5.5-.5h.5c.3 0 .5.2.5.5s-.3.5-.5.5zm21 0c-1.9 0-3.5-1.6-3.5-3.5 0-.3.2-.5.5-.5s.5.2.5.5c0 1.4 1.1 2.5 2.5 2.5.3 0 .5.2.5.5s-.3.5-.5.5z"/><path fill="#594454" d="M61 60h-.5c-.3 0-.5-.2-.5-.5s.2-.5.5-.5h.5c.3 0 .5.2.5.5s-.3.5-.5.5z"/><circle cx="24" cy="69.5" r=".5" fill="#594454"/><path fill="#594454" d="M77.5 78h-3c-.3 0-.5-.2-.5-.5v-4c0-.3.2-.5.5-.5h3c.3 0 .5.2.5.5v4c0 .3-.3.5-.5.5zM75 77h2v-3h-2v3z"/><path fill="#594454" d="M79.5 91h-7c-.3 0-.5-.2-.5-.5v-26c0-.3.2-.5.5-.5h7c.3 0 .5.2.5.5v26c0 .3-.3.5-.5.5zM73 90h6V65h-6v25z"/><path fill="#594454" d="M72.5 91h-9c-.3 0-.5-.2-.5-.5v-17c0-.3.2-.5.5-.5h9c.3 0 .5.2.5.5v17c0 .3-.3.5-.5.5zM64 90h8V74h-8v16zm13.5-25h-3c-.3 0-.5-.2-.5-.5V60c0-1.1.9-2 2-2s2 .9 2 2v4.5c0 .3-.3.5-.5.5zM75 64h2v-4c0-.6-.4-1-1-1s-1 .4-1 1v4z"/><path fill="#594454" d="M76 58.6c-.3 0-.5-.2-.5-.5v-1.6c0-.3.2-.5.5-.5s.5.2.5.5v1.6c0 .3-.3.5-.5.5zm3.5 7c-.3 0-.5-.2-.5-.5v-1.6c0-.3.2-.5.5-.5s.5.2.5.5v1.6c0 .3-.3.5-.5.5zm-7 0c-.3 0-.5-.2-.5-.5v-1.6c0-.3.2-.5.5-.5s.5.2.5.5v1.6c0 .3-.3.5-.5.5zm6-4.6h-5c-.3 0-.5-.2-.5-.5s.2-.5.5-.5h5c.3 0 .5.2.5.5s-.3.5-.5.5zm2 7h-9c-.3 0-.5-.2-.5-.5s.2-.5.5-.5h9c.3 0 .5.2.5.5s-.3.5-.5.5zm0 4h-9c-.3 0-.5-.2-.5-.5s.2-.5.5-.5h9c.3 0 .5.2.5.5s-.3.5-.5.5zm-3 4h-3c-.3 0-.5-.2-.5-.5s.2-.5.5-.5h3c.3 0 .5.2.5.5s-.3.5-.5.5zm-8 11h-3c-.3 0-.5-.2-.5-.5v-4c0-.3.2-.5.5-.5h3c.3 0 .5.2.5.5v4c0 .3-.3.5-.5.5zM67 86h2v-3h-2v3z"/><path fill="#594454" d="M69.5 85H67c-.3 0-.5-.2-.5-.5s.2-.5.5-.5h2.5c.3 0 .5.2.5.5s-.3.5-.5.5zm0-5h-3c-.3 0-.5-.2-.5-.5v-4c0-.3.2-.5.5-.5h3c.3 0 .5.2.5.5v4c0 .3-.3.5-.5.5zM67 79h2v-3h-2v3z"/><path fill="#594454" d="M69.5 78H67c-.3 0-.5-.2-.5-.5s.2-.5.5-.5h2.5c.3 0 .5.2.5.5s-.3.5-.5.5zm8 9h-3c-.3 0-.5-.2-.5-.5v-4c0-.3.2-.5.5-.5h3c.3 0 .5.2.5.5v4c0 .3-.3.5-.5.5zM75 86h2v-3h-2v3zm-2.5-12h-9c-.3 0-.5-.2-.5-.5v-4c0-.3.2-.5.5-.5h9c.3 0 .5.2.5.5v4c0 .3-.3.5-.5.5zM64 73h8v-3h-8v3zM80.5 81h-9c-.3 0-.5-.2-.5-.5s.2-.5.5-.5h9c.3 0 .5.2.5.5s-.3.5-.5.5z"/><circle cx="76" cy="69.5" r=".5" fill="#594454"/></svg>