<svg xmlns="http://www.w3.org/2000/svg" xmlns:xlink="http://www.w3.org/1999/xlink" width="100" height="100"><path fill="#ffe9cf" d="M78.7 89.8h-9v-31h9"/><path fill="#594454" d="M78.7 90.3h-9.5v-32h9.5v1h-8.5v30h8.5z"/><path fill="#fff" d="M69.7 58.8h2v31h-2z" opacity=".5"/><path fill="#ffe9cf" d="M67.7 58.8h10v-4h-10v2.5z"/><path fill="#cab5a8" d="M67.7 54.8h2v4h-2z"/><path fill="#ffe9cf" d="M32.7 58.8h-10v-4h10v3z"/><path fill="#fff" d="M30.7 54.8h2v4h-2z" opacity=".5"/><path fill="#ffe9cf" d="M30.7 89.8h-9v-31h9"/><path fill="#594454" d="M30.7 90.3h-9.5v-32h9.5v1h-8.5v30h8.5z"/><path fill="#ffe9cf" d="m77.8 54.8.1-.2c1-1.3.8-3.2-.5-4.2l-4.6-3.6-4.6 3.6c-1.3 1-1.5 2.9-.5 4.2l.1.2h10z"/><path fill="#594454" d="M78.1 55.3H67.6l-.3-.3c-.6-.7-.8-1.7-.7-2.6.1-.9.6-1.8 1.3-2.3l4.9-3.8 4.9 3.8c.7.6 1.2 1.4 1.3 2.3.1.9-.1 1.8-.7 2.6l-.2.3zm-10-1h9.5c.4-.5.6-1.2.5-1.8-.1-.7-.4-1.3-.9-1.7l-4.3-3.4-4.3 3.4c-.5.4-.9 1-.9 1.7-.2.7 0 1.3.4 1.8z"/><path fill="#ffe9cf" d="M30.7 57.8h3.1v4h-3.1zM30.7 67.8h3.1v22h-3.1z"/><path fill="#cab5a8" d="m70.7 50.5 3.4-2.6-1.3-1-4.6 3.6c-1.3 1-1.5 2.9-.5 4.2l.1.2h2.5l-.1-.2c-1-1.3-.8-3.2.5-4.2z"/><path fill="#fff" d="m74.9 50.5-3.4-2.6 1.3-1 4.6 3.6c1.3 1 1.5 2.9.5 4.2l-.1.2h-2.5l.1-.2c1.1-1.3.8-3.2-.5-4.2z" opacity=".5"/><path fill="#ffe9cf" d="M46.7 58.8h-5.9l1.9-3h15l2.1 3h-6.1"/><path fill="#594454" d="M60.8 59.3h-7.1v-1h5.2l-1.4-2H43l-1.3 2h5v1h-6.8l2.6-4H58z"/><path fill="#ffe9cf" d="M57.8 51.8h-15l-2-3h19z"/><path fill="#594454" d="M58.1 52.3H42.5l-2.7-4h20.9l-2.6 4zm-15-1h14.5l1.3-2H41.7l1.4 2z"/><path fill="#ffe9cf" d="M42.7 46.8h15v2h-15z"/><path fill="#ffe9cf" d="m52.2 37.8 4.2 2.2c2.3 1.3 3.2 4.2 1.5 6.7l-.1.1h-15l-.1-.1c-1.9-2.5-.7-5.4 1.5-6.7l4-2.1.2-.1"/><path fill="#cab5a8" d="M50.4 37.8h-2l-.2.2-4 2.1c-2.2 1.3-3.4 4.2-1.5 6.7h2c-1.6-5 2.3-6.1 5.7-9z"/><path fill="#fff" d="M50.3 37.8h2l.2.1 4 2.1c2.2 1.3 3.4 4.2 1.5 6.7h-2c1.6-4.9-2.3-6-5.7-8.9z" opacity=".5"/><path fill="#ffe9cf" d="M48.2 55.8h-5.5v-4h15v4h-5.5"/><path fill="#cab5a8" d="M43.8 58.8h-3l1.9-3h3zM45.8 51.8h-3l-2-3h3zM43.9 55.8h-1.2v-4h3.1v4h-1.1z"/><path fill="#fff" d="M56.8 48.8h3l-1.9 3h-3zM54.8 55.8h3l2 3h-3zM56.8 51.8h1.1v4h-3.1v-4h1.1z" opacity=".5"/><path fill="#ffe9cf" d="M47.7 35.8h5v2h-5zM48.7 35.3v-1c0-.8.7-1.5 1.5-1.5s1.5.7 1.5 1.5v1M54.5 58.8h12.2v3H33.8v-3H46M66.7 57.8h3v4h-3z"/><path fill="#ffd79e" d="M53.7 61.8h-7v-5l3.5-2 3.5 2z"/><path fill="#ffe9cf" d="m22.8 54.8-.1-.2c-1-1.3-.8-3.2.5-4.2l4.6-3.6 4.6 3.6c1.3 1 1.5 2.9.5 4.2l-.1.2h-10z"/><path fill="#cab5a8" d="m25.7 50.5 3.4-2.6-1.3-1-4.6 3.6c-1.3 1-1.5 2.9-.5 4.2l.1.2h2.5l-.1-.2c-1-1.3-.8-3.2.5-4.2z"/><path fill="#fff" d="m29.9 50.5-3.4-2.6 1.3-1 4.6 3.6c1.3 1 1.5 2.9.5 4.2l-.1.2h-2.5l.1-.2c1.1-1.3.8-3.2-.5-4.2z" opacity=".5"/><path fill="#cab5a8" d="M21.7 58.8h2v31h-2zM28.7 58.8h2v31h-2z"/><path fill="#fff" d="M75.7 54.8h2v4h-2zM76.7 58.8h2v31h-2z" opacity=".5"/><path fill="#cab5a8" d="M22.7 54.8h2v4h-2z"/><circle cx="26.3" cy="71.3" r="1.5" fill="#7a6a77"/><circle cx="74.3" cy="71.3" r="1.5" fill="#7a6a77"/><path fill="#7a6a77" d="M72.7 75.8h3v6h-3zM72.7 84.8h3v2h-3zM24.7 75.8h3v6h-3zM24.7 84.8h3v2h-3z"/><path fill="#ffe9cf" d="M32.7 76.8h35v4h-35zM32.7 67.8h37v4h-37z"/><path fill="#7a6a77" d="M33.8 71.8h32.9v5H33.8zM33.8 80.8h32.9v9H33.8z"/><path fill="#594454" d="M66.7 72.3H33.8c-.3 0-.5-.2-.5-.5v-4c0-.3.2-.5.5-.5h32.9c.3 0 .5.2.5.5v4c0 .3-.2.5-.5.5zm-32.4-1h31.9v-3H34.3v3zm32.4 10H33.8c-.3 0-.5-.2-.5-.5v-4c0-.3.2-.5.5-.5h32.9c.3 0 .5.2.5.5v4c0 .3-.2.5-.5.5zm-32.4-1h31.9v-3H34.3v3z"/><path fill="#ffe9cf" d="M28.7 64.8h43v3h-43zM73.8 64.8h-47l3-3h41z"/><path fill="#cab5a8" d="M28.7 64.8h3v3h-3zM29.8 61.8l-3 3h3l3-3z"/><path fill="#fff" d="M68.6 64.8h3v3h-3zM70.5 61.8l3 3h-3l-3-3z" opacity=".5"/><path fill="#594454" d="M31.2 90.3h-9.5c-.3 0-.5-.2-.5-.5v-31c0-.3.2-.5.5-.5h9c.3 0 .5.2.5.5s-.2.5-.5.5h-8.5v30h9c.3 0 .5.2.5.5s-.2.5-.5.5zm47.5 0H68.2c-.3 0-.5-.2-.5-.5s.2-.5.5-.5h10v-30h-8c-.3 0-.5-.2-.5-.5s.2-.5.5-.5h8.5c.3 0 .5.2.5.5v31c0 .3-.2.5-.5.5z"/><path fill="#594454" d="M33.7 62.3h-3c-.3 0-.5-.2-.5-.5v-4c0-.3.2-.5.5-.5h3c.3 0 .5.2.5.5v4c0 .3-.2.5-.5.5zm-2.5-1h2v-3h-2v3zm38.5 1h-3c-.3 0-.5-.2-.5-.5v-4c0-.3.2-.5.5-.5h3c.3 0 .5.2.5.5v4c0 .3-.2.5-.5.5zm-2.5-1h2v-3h-2v3z"/><path fill="#594454" d="M66.7 62.3H33.8c-.3 0-.5-.2-.5-.5v-3c0-.3.2-.5.5-.5H46c.3 0 .5.2.5.5s-.2.5-.5.5H34.3v2h31.9v-2H54.5c-.3 0-.5-.2-.5-.5s.2-.5.5-.5h12.2c.3 0 .5.2.5.5v3c0 .3-.2.5-.5.5z"/><path fill="#594454" d="M46.7 59.3h-5.9c-.2 0-.4-.1-.4-.3s-.1-.4 0-.5l1.9-3c.2-.2.5-.3.7-.2.2.1.3.5.2.7l-1.4 2.2h5c.3 0 .5.2.5.5s-.3.6-.6.6zm13.1 0h-6.1c-.3 0-.5-.2-.5-.5s.2-.5.5-.5h5.1l-1.5-2.2c-.2-.2-.1-.5.1-.7.2-.2.5-.1.7.1l2.1 3c.1.2.1.4 0 .5s-.2.3-.4.3zm-2-7h-15c-.2 0-.3-.1-.4-.2l-2-3c-.1-.2-.1-.4 0-.5.1-.2.3-.3.4-.3h19c.2 0 .4.1.4.3.1.2.1.4 0 .5l-2 3c-.1.2-.2.2-.4.2zm-14.7-1h14.5l1.3-2H41.7l1.4 2z"/><path fill="#594454" d="M57.7 49.3h-15c-.3 0-.5-.2-.5-.5v-2c0-.3.2-.5.5-.5h15c.3 0 .5.2.5.5v2c0 .3-.2.5-.5.5zm-14.5-1h14v-1h-14v1z"/><path fill="#594454" d="M57.8 47.3h-15c-.2 0-.3-.1-.4-.2l-.1-.1c-.9-1.1-1.2-2.5-1-3.8.3-1.4 1.2-2.8 2.6-3.6l4.2-2.2c.2-.1.5 0 .7.2.1.2 0 .5-.2.7l-4.2 2.2c-1.1.7-1.9 1.8-2.1 2.9-.2 1 .1 2 .7 2.9h14.5c.7-1 .9-2.1.7-3.2-.3-1.1-1-2.1-2-2.6L52 38.3c-.2-.1-.3-.4-.2-.7.1-.2.4-.3.7-.2l4.2 2.2c1.3.7 2.2 1.9 2.5 3.3.3 1.4 0 2.9-.9 4.1l-.1.1c-.1.2-.2.2-.4.2zm-.1 9h-5.5c-.3 0-.5-.2-.5-.5s.2-.5.5-.5h5v-3h-14v3h5c.3 0 .5.2.5.5s-.2.5-.5.5h-5.5c-.3 0-.5-.2-.5-.5v-4c0-.3.2-.5.5-.5h15c.3 0 .5.2.5.5v4c0 .3-.2.5-.5.5zm-30.5 3h-4.5c-.3 0-.5-.2-.5-.5v-4c0-.3.2-.5.5-.5h10c.3 0 .5.2.5.5v3c0 .3-.2.5-.5.5s-.5-.2-.5-.5v-2.5h-9v3h4c.3 0 .5.2.5.5s-.2.5-.5.5zm44.5 9h-43c-.3 0-.5-.2-.5-.5v-3c0-.3.2-.5.5-.5h43c.3 0 .5.2.5.5v3c0 .3-.2.5-.5.5zm-42.5-1h42v-2h-42v2z"/><path fill="#594454" d="M73.8 65.3h-47c-.2 0-.4-.1-.5-.3s0-.4.1-.5l3-3c.1-.1.2-.1.4-.1h41c.1 0 .3.1.4.1l3 3c.1.1.2.4.1.5s-.3.3-.5.3zm-45.8-1h44.6l-2-2H30l-2 2z"/><path fill="#594454" d="M53.7 62.3h-7c-.3 0-.5-.2-.5-.5v-5c0-.2.1-.3.3-.4l3.5-2c.2-.1.3-.1.5 0l3.5 2c.2.1.3.3.3.4v5c-.1.3-.3.5-.6.5zm-6.5-1h6v-4.2l-3-1.7-3 1.7v4.2zm-14.4-6h-10c-.2 0-.3-.1-.4-.2l-.1-.1c-.6-.7-.8-1.7-.7-2.6.1-.9.6-1.8 1.3-2.3l4.6-3.6c.2-.1.4-.1.6 0l4.6 3.6c.7.6 1.2 1.4 1.3 2.3.1.9-.1 1.8-.7 2.6l-.1.2c-.1.1-.2.1-.4.1zm-9.7-1h9.5c.4-.5.6-1.2.5-1.8-.1-.7-.4-1.3-.9-1.7l-4.3-3.4-4.3 3.4c-.5.4-.9 1-.9 1.7-.2.7 0 1.3.4 1.8zm54.6 5h-4.5c-.3 0-.5-.2-.5-.5s.2-.5.5-.5h4v-3h-9v2c0 .3-.2.5-.5.5s-.5-.2-.5-.5v-2.5c0-.3.2-.5.5-.5h10c.3 0 .5.2.5.5v4c0 .3-.2.5-.5.5z"/><path fill="#594454" d="M77.8 55.3h-10c-.2 0-.3-.1-.4-.2l-.1-.1c-.6-.7-.8-1.7-.7-2.6.1-.9.6-1.8 1.3-2.3l4.6-3.6c.2-.1.4-.1.6 0l4.6 3.6c.7.6 1.2 1.4 1.3 2.3.1.9-.1 1.8-.7 2.6l-.1.2c-.1.1-.2.1-.4.1zm-9.7-1h9.5c.4-.5.6-1.2.5-1.8-.1-.7-.4-1.3-.9-1.7l-4.3-3.4-4.3 3.4c-.5.4-.9 1-.9 1.7-.2.7 0 1.3.4 1.8zm-41.8 19c-1.1 0-2-.9-2-2s.9-2 2-2 2 .9 2 2-.9 2-2 2zm0-3c-.6 0-1 .4-1 1s.4 1 1 1 1-.4 1-1-.4-1-1-1zm1.4 12h-3c-.3 0-.5-.2-.5-.5v-6c0-.3.2-.5.5-.5h3c.3 0 .5.2.5.5v6c0 .3-.2.5-.5.5zm-2.5-1h2v-5h-2v5zm2.5 6h-3c-.3 0-.5-.2-.5-.5v-2c0-.3.2-.5.5-.5h3c.3 0 .5.2.5.5v2c0 .3-.2.5-.5.5zm-2.5-1h2v-1h-2v1z"/><path fill="#594454" d="M28.7 76.3h-5c-.3 0-.5-.2-.5-.5s.2-.5.5-.5h5c.3 0 .5.2.5.5s-.2.5-.5.5zm45.6-3c-1.1 0-2-.9-2-2s.9-2 2-2 2 .9 2 2-.9 2-2 2zm0-3c-.6 0-1 .4-1 1s.4 1 1 1 1-.4 1-1-.4-1-1-1zm1.4 12h-3c-.3 0-.5-.2-.5-.5v-6c0-.3.2-.5.5-.5h3c.3 0 .5.2.5.5v6c0 .3-.2.5-.5.5zm-2.5-1h2v-5h-2v5zm2.5 6h-3c-.3 0-.5-.2-.5-.5v-2c0-.3.2-.5.5-.5h3c.3 0 .5.2.5.5v2c0 .3-.2.5-.5.5zm-2.5-1h2v-1h-2v1z"/><path fill="#594454" d="M76.7 76.3h-5c-.3 0-.5-.2-.5-.5s.2-.5.5-.5h5c.3 0 .5.2.5.5s-.2.5-.5.5zm-24-38h-5c-.3 0-.5-.2-.5-.5v-2c0-.3.2-.5.5-.5h5c.3 0 .5.2.5.5v2c0 .3-.2.5-.5.5zm-4.5-1h4v-1h-4v1z"/><path fill="#594454" d="M51.7 35.8c-.3 0-.5-.2-.5-.5v-1c0-.5-.4-1-1-1s-1 .4-1 1v1c0 .3-.2.5-.5.5s-.5-.2-.5-.5v-1c0-1.1.9-2 2-2s2 .9 2 2v1c0 .3-.2.5-.5.5z"/><defs><path id="a" d="M27.8 46.8v-1.5"/></defs><clipPath id="b"><use overflow="visible" xlink:href="#a"/></clipPath><circle cx="27.8" cy="45.3" r="1.1" fill="#f05877" clip-path="url(#b)"/><circle cx="27.8" cy="45.3" r="1.1" fill="#f05978" clip-path="url(#b)"/><circle cx="27.8" cy="45.3" r="1.1" fill="#f05a79" clip-path="url(#b)"/><circle cx="27.8" cy="45.3" r="1" fill="#f05b79" clip-path="url(#b)"/><circle cx="27.8" cy="45.3" r="1" fill="#f05c7a" clip-path="url(#b)"/><circle cx="27.8" cy="45.3" r="1" fill="#f05d7b" clip-path="url(#b)"/><circle cx="27.8" cy="45.3" r="1" fill="#f05e7c" clip-path="url(#b)"/><circle cx="27.8" cy="45.3" r="1" fill="#f05e7d" clip-path="url(#b)"/><circle cx="27.8" cy="45.3" r="1" fill="#f05f7e" clip-path="url(#b)"/><circle cx="27.8" cy="45.3" r="1" fill="#f0607e" clip-path="url(#b)"/><circle cx="27.8" cy="45.3" r="1" fill="#f0617f" clip-path="url(#b)"/><circle cx="27.8" cy="45.3" r=".9" fill="#f06280" clip-path="url(#b)"/><circle cx="27.8" cy="45.3" r=".9" fill="#f06381" clip-path="url(#b)"/><circle cx="27.8" cy="45.3" r=".9" fill="#f06382" clip-path="url(#b)"/><circle cx="27.8" cy="45.3" r=".9" fill="#f06483" clip-path="url(#b)"/><circle cx="27.8" cy="45.3" r=".9" fill="#f06583" clip-path="url(#b)"/><circle cx="27.8" cy="45.3" r=".9" fill="#f06684" clip-path="url(#b)"/><circle cx="27.8" cy="45.3" r=".9" fill="#f06785" clip-path="url(#b)"/><circle cx="27.8" cy="45.3" r=".9" fill="#f06786" clip-path="url(#b)"/><circle cx="27.8" cy="45.3" r=".8" fill="#f06887" clip-path="url(#b)"/><circle cx="27.8" cy="45.3" r=".8" fill="#f06988" clip-path="url(#b)"/><circle cx="27.8" cy="45.3" r=".8" fill="#f06a88" clip-path="url(#b)"/><circle cx="27.8" cy="45.3" r=".8" fill="#f06b89" clip-path="url(#b)"/><circle cx="27.8" cy="45.3" r=".8" fill="#f06b8a" clip-path="url(#b)"/><circle cx="27.8" cy="45.3" r=".8" fill="#f06c8b" clip-path="url(#b)"/><circle cx="27.8" cy="45.3" r=".8" fill="#f06d8c" clip-path="url(#b)"/><circle cx="27.8" cy="45.3" r=".8" fill="#f06e8d" clip-path="url(#b)"/><circle cx="27.8" cy="45.3" r=".7" fill="#f06e8d" clip-path="url(#b)"/><circle cx="27.8" cy="45.3" r=".7" fill="#f06f8e" clip-path="url(#b)"/><circle cx="27.8" cy="45.3" r=".7" fill="#f1708f" clip-path="url(#b)"/><circle cx="27.8" cy="45.3" r=".7" fill="#f17190" clip-path="url(#b)"/><circle cx="27.8" cy="45.3" r=".7" fill="#f17191" clip-path="url(#b)"/><circle cx="27.8" cy="45.3" r=".7" fill="#f17291" clip-path="url(#b)"/><circle cx="27.8" cy="45.3" r=".7" fill="#f17392" clip-path="url(#b)"/><circle cx="27.8" cy="45.3" r=".7" fill="#f17393" clip-path="url(#b)"/><circle cx="27.8" cy="45.3" r=".6" fill="#f17494" clip-path="url(#b)"/><circle cx="27.8" cy="45.3" r=".6" fill="#f17595" clip-path="url(#b)"/><circle cx="27.8" cy="45.3" r=".6" fill="#f17695" clip-path="url(#b)"/><circle cx="27.8" cy="45.3" r=".6" fill="#f17696" clip-path="url(#b)"/><circle cx="27.8" cy="45.3" r=".6" fill="#f17797" clip-path="url(#b)"/><circle cx="27.8" cy="45.3" r=".6" fill="#f17898" clip-path="url(#b)"/><circle cx="27.8" cy="45.3" r=".6" fill="#f17899" clip-path="url(#b)"/><circle cx="27.8" cy="45.3" r=".6" fill="#f17999" clip-path="url(#b)"/><circle cx="27.8" cy="45.3" r=".5" fill="#f1799a" clip-path="url(#b)"/><circle cx="27.8" cy="45.3" r=".5" fill="#f17a9b" clip-path="url(#b)"/><circle cx="27.8" cy="45.3" r=".5" fill="#f17b9c" clip-path="url(#b)"/><circle cx="27.8" cy="45.3" r=".5" fill="#f17b9d" clip-path="url(#b)"/><circle cx="27.8" cy="45.3" r=".5" fill="#f17c9d" clip-path="url(#b)"/><circle cx="27.8" cy="45.3" r=".5" fill="#f17d9e" clip-path="url(#b)"/><circle cx="27.8" cy="45.3" r=".5" fill="#f17d9f" clip-path="url(#b)"/><circle cx="27.8" cy="45.3" r=".5" fill="#f17ea0" clip-path="url(#b)"/><circle cx="27.8" cy="45.3" r=".4" fill="#f17ea1" clip-path="url(#b)"/><circle cx="27.8" cy="45.3" r=".4" fill="#f17fa1" clip-path="url(#b)"/><circle cx="27.8" cy="45.3" r=".4" fill="#f180a2" clip-path="url(#b)"/><circle cx="27.8" cy="45.3" r=".4" fill="#f180a3" clip-path="url(#b)"/><circle cx="27.8" cy="45.3" r=".4" fill="#f181a4" clip-path="url(#b)"/><circle cx="27.8" cy="45.3" r=".4" fill="#f181a4" clip-path="url(#b)"/><circle cx="27.8" cy="45.3" r=".4" fill="#f182a5" clip-path="url(#b)"/><circle cx="27.8" cy="45.3" r=".4" fill="#f183a6" clip-path="url(#b)"/><circle cx="27.8" cy="45.3" r=".3" fill="#f183a7" clip-path="url(#b)"/><circle cx="27.8" cy="45.3" r=".3" fill="#f184a8" clip-path="url(#b)"/><circle cx="27.8" cy="45.3" r=".3" fill="#f184a8" clip-path="url(#b)"/><circle cx="27.8" cy="45.3" r=".3" fill="#f185a9" clip-path="url(#b)"/><circle cx="27.8" cy="45.3" r=".3" fill="#f185aa" clip-path="url(#b)"/><circle cx="27.8" cy="45.3" r=".3" fill="#f186ab" clip-path="url(#b)"/><circle cx="27.8" cy="45.3" r=".3" fill="#f187ab" clip-path="url(#b)"/><circle cx="27.8" cy="45.3" r=".3" fill="#f187ac" clip-path="url(#b)"/><circle cx="27.8" cy="45.3" r=".2" fill="#f188ad" clip-path="url(#b)"/><circle cx="27.8" cy="45.3" r=".2" fill="#f188ad" clip-path="url(#b)"/><circle cx="27.8" cy="45.3" r=".2" fill="#f189ae" clip-path="url(#b)"/><circle cx="27.8" cy="45.3" r=".2" fill="#f189af" clip-path="url(#b)"/><circle cx="27.8" cy="45.3" r=".2" fill="#f18ab0" clip-path="url(#b)"/><circle cx="27.8" cy="45.3" r=".2" fill="#f18ab0" clip-path="url(#b)"/><circle cx="27.8" cy="45.3" r=".2" fill="#f18bb1" clip-path="url(#b)"/><circle cx="27.8" cy="45.3" r=".2" fill="#f18bb2" clip-path="url(#b)"/><circle cx="27.8" cy="45.3" r=".1" fill="#f18cb2" clip-path="url(#b)"/><circle cx="27.8" cy="45.3" r=".1" fill="#f18cb3" clip-path="url(#b)"/><circle cx="27.8" cy="45.3" r=".1" fill="#f18db4" clip-path="url(#b)"/><circle cx="27.8" cy="45.3" r=".1" fill="#f18db4" clip-path="url(#b)"/><circle cx="27.8" cy="45.3" r=".1" fill="#f18eb5" clip-path="url(#b)"/><circle cx="27.8" cy="45.3" r=".1" fill="#f18eb6" clip-path="url(#b)"/><circle cx="27.8" cy="45.3" r=".1" fill="#f18eb6" clip-path="url(#b)"/><circle cx="27.8" cy="45.3" r=".1" fill="#f18fb7" clip-path="url(#b)"/><path fill="#594454" d="M27.8 47.3c-.3 0-.5-.2-.5-.5v-1.6c0-.3.2-.5.5-.5s.5.2.5.5v1.6c0 .3-.2.5-.5.5z"/><defs><path id="c" d="M72.8 46.8v-1.5"/></defs><clipPath id="d"><use overflow="visible" xlink:href="#c"/></clipPath><circle cx="72.8" cy="45.3" r="1.1" fill="#f05877" clip-path="url(#d)"/><circle cx="72.8" cy="45.3" r="1.1" fill="#f05978" clip-path="url(#d)"/><circle cx="72.8" cy="45.3" r="1.1" fill="#f05a79" clip-path="url(#d)"/><circle cx="72.8" cy="45.3" r="1" fill="#f05b79" clip-path="url(#d)"/><circle cx="72.8" cy="45.3" r="1" fill="#f05c7a" clip-path="url(#d)"/><circle cx="72.8" cy="45.3" r="1" fill="#f05d7b" clip-path="url(#d)"/><circle cx="72.8" cy="45.3" r="1" fill="#f05e7c" clip-path="url(#d)"/><circle cx="72.8" cy="45.3" r="1" fill="#f05e7d" clip-path="url(#d)"/><circle cx="72.8" cy="45.3" r="1" fill="#f05f7e" clip-path="url(#d)"/><circle cx="72.8" cy="45.3" r="1" fill="#f0607e" clip-path="url(#d)"/><circle cx="72.8" cy="45.3" r="1" fill="#f0617f" clip-path="url(#d)"/><circle cx="72.8" cy="45.3" r=".9" fill="#f06280" clip-path="url(#d)"/><circle cx="72.8" cy="45.3" r=".9" fill="#f06381" clip-path="url(#d)"/><circle cx="72.8" cy="45.3" r=".9" fill="#f06382" clip-path="url(#d)"/><circle cx="72.8" cy="45.3" r=".9" fill="#f06483" clip-path="url(#d)"/><circle cx="72.8" cy="45.3" r=".9" fill="#f06583" clip-path="url(#d)"/><circle cx="72.8" cy="45.3" r=".9" fill="#f06684" clip-path="url(#d)"/><circle cx="72.8" cy="45.3" r=".9" fill="#f06785" clip-path="url(#d)"/><circle cx="72.8" cy="45.3" r=".9" fill="#f06786" clip-path="url(#d)"/><circle cx="72.8" cy="45.3" r=".8" fill="#f06887" clip-path="url(#d)"/><circle cx="72.8" cy="45.3" r=".8" fill="#f06988" clip-path="url(#d)"/><circle cx="72.8" cy="45.3" r=".8" fill="#f06a88" clip-path="url(#d)"/><circle cx="72.8" cy="45.3" r=".8" fill="#f06b89" clip-path="url(#d)"/><circle cx="72.8" cy="45.3" r=".8" fill="#f06b8a" clip-path="url(#d)"/><circle cx="72.8" cy="45.3" r=".8" fill="#f06c8b" clip-path="url(#d)"/><circle cx="72.8" cy="45.3" r=".8" fill="#f06d8c" clip-path="url(#d)"/><circle cx="72.8" cy="45.3" r=".8" fill="#f06e8d" clip-path="url(#d)"/><circle cx="72.8" cy="45.3" r=".7" fill="#f06e8d" clip-path="url(#d)"/><circle cx="72.8" cy="45.3" r=".7" fill="#f06f8e" clip-path="url(#d)"/><circle cx="72.8" cy="45.3" r=".7" fill="#f1708f" clip-path="url(#d)"/><circle cx="72.8" cy="45.3" r=".7" fill="#f17190" clip-path="url(#d)"/><circle cx="72.8" cy="45.3" r=".7" fill="#f17191" clip-path="url(#d)"/><circle cx="72.8" cy="45.3" r=".7" fill="#f17291" clip-path="url(#d)"/><circle cx="72.8" cy="45.3" r=".7" fill="#f17392" clip-path="url(#d)"/><circle cx="72.8" cy="45.3" r=".7" fill="#f17393" clip-path="url(#d)"/><circle cx="72.8" cy="45.3" r=".6" fill="#f17494" clip-path="url(#d)"/><circle cx="72.8" cy="45.3" r=".6" fill="#f17595" clip-path="url(#d)"/><circle cx="72.8" cy="45.3" r=".6" fill="#f17695" clip-path="url(#d)"/><circle cx="72.8" cy="45.3" r=".6" fill="#f17696" clip-path="url(#d)"/><circle cx="72.8" cy="45.3" r=".6" fill="#f17797" clip-path="url(#d)"/><circle cx="72.8" cy="45.3" r=".6" fill="#f17898" clip-path="url(#d)"/><circle cx="72.8" cy="45.3" r=".6" fill="#f17899" clip-path="url(#d)"/><circle cx="72.8" cy="45.3" r=".6" fill="#f17999" clip-path="url(#d)"/><circle cx="72.8" cy="45.3" r=".5" fill="#f1799a" clip-path="url(#d)"/><circle cx="72.8" cy="45.3" r=".5" fill="#f17a9b" clip-path="url(#d)"/><circle cx="72.8" cy="45.3" r=".5" fill="#f17b9c" clip-path="url(#d)"/><circle cx="72.8" cy="45.3" r=".5" fill="#f17b9d" clip-path="url(#d)"/><circle cx="72.8" cy="45.3" r=".5" fill="#f17c9d" clip-path="url(#d)"/><circle cx="72.8" cy="45.3" r=".5" fill="#f17d9e" clip-path="url(#d)"/><circle cx="72.8" cy="45.3" r=".5" fill="#f17d9f" clip-path="url(#d)"/><circle cx="72.8" cy="45.3" r=".5" fill="#f17ea0" clip-path="url(#d)"/><circle cx="72.8" cy="45.3" r=".4" fill="#f17ea1" clip-path="url(#d)"/><circle cx="72.8" cy="45.3" r=".4" fill="#f17fa1" clip-path="url(#d)"/><circle cx="72.8" cy="45.3" r=".4" fill="#f180a2" clip-path="url(#d)"/><circle cx="72.8" cy="45.3" r=".4" fill="#f180a3" clip-path="url(#d)"/><circle cx="72.8" cy="45.3" r=".4" fill="#f181a4" clip-path="url(#d)"/><circle cx="72.8" cy="45.3" r=".4" fill="#f181a4" clip-path="url(#d)"/><circle cx="72.8" cy="45.3" r=".4" fill="#f182a5" clip-path="url(#d)"/><circle cx="72.8" cy="45.3" r=".4" fill="#f183a6" clip-path="url(#d)"/><circle cx="72.8" cy="45.3" r=".3" fill="#f183a7" clip-path="url(#d)"/><circle cx="72.8" cy="45.3" r=".3" fill="#f184a8" clip-path="url(#d)"/><circle cx="72.8" cy="45.3" r=".3" fill="#f184a8" clip-path="url(#d)"/><circle cx="72.8" cy="45.3" r=".3" fill="#f185a9" clip-path="url(#d)"/><circle cx="72.8" cy="45.3" r=".3" fill="#f185aa" clip-path="url(#d)"/><circle cx="72.8" cy="45.3" r=".3" fill="#f186ab" clip-path="url(#d)"/><circle cx="72.8" cy="45.3" r=".3" fill="#f187ab" clip-path="url(#d)"/><circle cx="72.8" cy="45.3" r=".3" fill="#f187ac" clip-path="url(#d)"/><circle cx="72.8" cy="45.3" r=".2" fill="#f188ad" clip-path="url(#d)"/><circle cx="72.8" cy="45.3" r=".2" fill="#f188ad" clip-path="url(#d)"/><circle cx="72.8" cy="45.3" r=".2" fill="#f189ae" clip-path="url(#d)"/><circle cx="72.8" cy="45.3" r=".2" fill="#f189af" clip-path="url(#d)"/><circle cx="72.8" cy="45.3" r=".2" fill="#f18ab0" clip-path="url(#d)"/><circle cx="72.8" cy="45.3" r=".2" fill="#f18ab0" clip-path="url(#d)"/><circle cx="72.8" cy="45.3" r=".2" fill="#f18bb1" clip-path="url(#d)"/><circle cx="72.8" cy="45.3" r=".2" fill="#f18bb2" clip-path="url(#d)"/><circle cx="72.8" cy="45.3" r=".1" fill="#f18cb2" clip-path="url(#d)"/><circle cx="72.8" cy="45.3" r=".1" fill="#f18cb3" clip-path="url(#d)"/><circle cx="72.8" cy="45.3" r=".1" fill="#f18db4" clip-path="url(#d)"/><circle cx="72.8" cy="45.3" r=".1" fill="#f18db4" clip-path="url(#d)"/><circle cx="72.8" cy="45.3" r=".1" fill="#f18eb5" clip-path="url(#d)"/><circle cx="72.8" cy="45.3" r=".1" fill="#f18eb6" clip-path="url(#d)"/><circle cx="72.8" cy="45.3" r=".1" fill="#f18eb6" clip-path="url(#d)"/><circle cx="72.8" cy="45.3" r=".1" fill="#f18fb7" clip-path="url(#d)"/><path fill="#594454" d="M72.8 47.3c-.3 0-.5-.2-.5-.5v-1.6c0-.3.2-.5.5-.5s.5.2.5.5v1.6c0 .3-.2.5-.5.5zM43.8 59.3c-.1 0-.2 0-.3-.1-.2-.1-.3-.5-.2-.7l1.8-2.9.1-3.7-1.9-2.9c-.2-.2-.1-.5.1-.7.2-.2.5-.1.7.1l2 3c.1.1.1.2.1.3l-.1 4c0 .1 0 .2-.1.3l-1.9 3c0 .3-.1.3-.3.3zM56.8 59.3c-.2 0-.3-.1-.4-.2l-2-3c-.1-.1-.1-.2-.1-.3l.1-4c0-.1 0-.2.1-.3l1.9-3c.1-.2.5-.3.7-.2.2.1.3.5.2.7l-1.9 3-.1 3.7 1.9 2.9c.2.2.1.5-.1.7h-.3z"/><path fill="#ffe9cf" d="M30.7 67.8h3.1v22h-3.1z"/><path fill="#594454" d="M34.3 90.3h-4.1v-23h4.1v23zm-3.1-1h2.1v-21h-2.1v21z"/><path fill="#ffe9cf" d="M43.6 67.8h3.1v22h-3.1z"/><path fill="#594454" d="M47.2 90.3h-4.1v-23h4.1v23zm-3.1-1h2.1v-21h-2.1v21z"/><path fill="#ffe9cf" d="M37.2 67.8h3.1v22h-3.1z"/><path fill="#594454" d="M40.8 90.3h-4.1v-23h4.1v23zm-3.1-1h2.1v-21h-2.1v21z"/><path fill="#ffe9cf" d="M66.7 67.8h3.1v22h-3.1z"/><path fill="#594454" d="M70.3 90.3h-4.1v-23h4.1v23zm-3.1-1h2.1v-21h-2.1v21z"/><path fill="#ffe9cf" d="M60.2 67.8h3.1v22h-3.1z"/><path fill="#594454" d="M63.8 90.3h-4.1v-23h4.1v23zm-3.1-1h2.1v-21h-2.1v21z"/><path fill="#ffe9cf" d="M53.7 67.8h3.1v22h-3.1z"/><path fill="#594454" d="M57.3 90.3h-4.1v-23h4.1v23zm-3.1-1h2.1v-21h-2.1v21zM51.7 47c-.3 0-.5-.2-.5-.5v-1.3c0-.5-.3-1-.7-1.3l-.3-.2-.3.2c-.4.3-.7.7-.7 1.3v1.3c0 .3-.2.5-.5.5s-.5-.2-.5-.5v-1.3c0-.9.4-1.6 1.1-2.1l.6-.4c.2-.1.4-.1.5 0l.6.4c.7.5 1.2 1.3 1.2 2.1v1.3c0 .3-.2.5-.5.5z"/><path fill="#594454" d="M80.8 90.3h-61c-.3 0-.5-.2-.5-.5s.2-.5.5-.5h61c.3 0 .5.2.5.5s-.3.5-.5.5z"/></svg>